<svg width="189" height="34" viewBox="0 0 189 34" fill="none" xmlns="http://www.w3.org/2000/svg">
<path d="M0 15.6581C0 7.01039 7.15431 0 15.9796 0H173.02C181.846 0 189 7.01039 189 15.6581V17.8179C189 26.4656 181.846 33.476 173.02 33.476H15.9796C7.15431 33.476 0 26.4656 0 17.8179V15.6581Z" fill="#5352ED"/>
<path d="M30.7067 25.1757C32.0461 24.2879 33.0773 23.0195 33.7947 21.3764C34.3271 20.1714 34.6633 18.782 34.7978 17.2081C34.8483 16.6661 34.8707 16.0954 34.8707 15.5073V7.18796C34.8707 5.91383 33.8675 4.88184 32.629 4.88184H12.0054C10.7668 4.88184 9.76367 5.91383 9.76367 7.18796V7.37245C9.76367 8.64659 10.7668 9.67858 12.0054 9.67858H17.01V15.5073C17.01 16.0954 17.0324 16.6661 17.0828 17.2081C17.2173 18.782 17.5536 20.1714 18.086 21.3764C18.8033 23.0195 19.8289 24.2879 21.1683 25.1757C22.5077 26.0578 24.0993 26.5018 25.9375 26.5018C27.7757 26.5018 29.3729 26.0578 30.7067 25.1757ZM22.2443 20.0446C21.6671 19.3355 21.286 18.3957 21.0955 17.2081C21.0002 16.6258 20.9553 15.9858 20.9553 15.2882V9.67858H20.294C19.728 9.67858 19.4534 8.95791 19.8737 8.56011L19.9074 8.53128C20.3053 8.15077 20.9553 8.4448 20.9553 9.00403V9.67858H30.9253V8.98674C30.9253 8.4275 31.5698 8.13924 31.9677 8.50822L32.0181 8.56011C32.444 8.95215 32.1694 9.67858 31.6034 9.67858H30.9253V15.2882C30.9253 15.9858 30.8805 16.6258 30.7796 17.2081C30.5946 18.3957 30.208 19.3355 29.6307 20.0446C28.7733 21.1285 27.5403 21.6704 25.9375 21.6704C24.3347 21.6704 23.1298 21.1285 22.2443 20.0446Z" fill="white"/>
<path d="M36.7178 17.4351H30.6865C30.7917 16.8188 30.8385 16.1414 30.8385 15.403V12.5532H36.7178C38.0094 12.5532 39.0555 13.6456 39.0555 14.9942C39.0555 16.3428 38.0094 17.4351 36.7178 17.4351Z" fill="#D9D9D9"/>
<path d="M20.7772 15.403C20.7772 16.1414 20.8237 16.8188 20.9225 17.4351H11.3911C10.1067 17.4351 9.06641 16.3428 9.06641 14.9942C9.06641 14.3229 9.32794 13.7127 9.74639 13.2672C10.1706 12.8278 10.7518 12.5532 11.3911 12.5532H20.7772V15.403Z" fill="#D9D9D9"/>
<path d="M41.8457 26.8761V5.5791H50.1005C51.9551 5.5791 53.5375 5.8732 54.8478 6.46141C56.1581 7.04961 57.166 7.90149 57.8715 9.01704C58.577 10.1326 58.9298 11.4611 58.9298 13.0026C58.9298 14.5441 58.577 15.8726 57.8715 16.9882C57.166 18.0835 56.1581 18.9353 54.8478 19.5438C53.5375 20.132 51.9551 20.4261 50.1005 20.4261H43.5088L44.8694 18.9962V26.8761H41.8457ZM44.8694 19.3004L43.5088 17.7792H50.0098C51.945 17.7792 53.4065 17.3634 54.3942 16.5318C55.4021 15.7002 55.9061 14.5238 55.9061 13.0026C55.9061 11.4814 55.4021 10.305 54.3942 9.4734C53.4065 8.64181 51.945 8.22601 50.0098 8.22601H43.5088L44.8694 6.7048V19.3004Z" fill="white"/>
<path d="M62.6535 26.8761V10.7512H65.4353V15.1323L65.1632 14.037C65.6067 12.9215 66.3525 12.0696 67.4008 11.4814C68.449 10.8932 69.7391 10.5991 71.2711 10.5991V13.4286C71.1502 13.4083 71.0292 13.3981 70.9083 13.3981C70.8075 13.3981 70.7067 13.3981 70.6059 13.3981C69.0537 13.3981 67.8241 13.8646 66.917 14.7976C66.0098 15.7307 65.5563 17.0795 65.5563 18.8441V26.8761H62.6535Z" fill="white"/>
<path d="M81.5651 27.0586C79.9524 27.0586 78.5212 26.7037 77.2714 25.9938C76.0216 25.2839 75.0338 24.3103 74.3081 23.073C73.5824 21.8155 73.2196 20.3957 73.2196 18.8136C73.2196 17.2113 73.5824 15.7915 74.3081 14.5542C75.0338 13.317 76.0216 12.3536 77.2714 11.6639C78.5212 10.954 79.9524 10.5991 81.5651 10.5991C83.1576 10.5991 84.5787 10.954 85.8286 11.6639C87.0985 12.3536 88.0863 13.317 88.7918 14.5542C89.5175 15.7712 89.8804 17.191 89.8804 18.8136C89.8804 20.416 89.5175 21.8358 88.7918 23.073C88.0863 24.3103 87.0985 25.2839 85.8286 25.9938C84.5787 26.7037 83.1576 27.0586 81.5651 27.0586ZM81.5651 24.503C82.5932 24.503 83.5104 24.2697 84.3167 23.8032C85.1432 23.3367 85.7882 22.6775 86.2519 21.8256C86.7155 20.9535 86.9473 19.9495 86.9473 18.8136C86.9473 17.6575 86.7155 16.6637 86.2519 15.8321C85.7882 14.9802 85.1432 14.321 84.3167 13.8545C83.5104 13.388 82.5932 13.1547 81.5651 13.1547C80.537 13.1547 79.6198 13.388 78.8135 13.8545C78.0072 14.321 77.3621 14.9802 76.8783 15.8321C76.3945 16.6637 76.1526 17.6575 76.1526 18.8136C76.1526 19.9495 76.3945 20.9535 76.8783 21.8256C77.3621 22.6775 78.0072 23.3367 78.8135 23.8032C79.6198 24.2697 80.537 24.503 81.5651 24.503Z" fill="white"/>
<path d="M98.4909 27.0586C97.1605 27.0586 95.8905 26.8761 94.681 26.511C93.4917 26.1459 92.5543 25.6997 91.8689 25.1723L93.0784 22.8601C93.7638 23.3266 94.6105 23.7221 95.6184 24.0466C96.6263 24.3711 97.6544 24.5334 98.7026 24.5334C100.053 24.5334 101.021 24.3407 101.605 23.9553C102.21 23.57 102.512 23.0325 102.512 22.3429C102.512 21.8358 102.331 21.4403 101.968 21.1563C101.605 20.8723 101.122 20.6594 100.517 20.5174C99.9322 20.3754 99.2771 20.2537 98.5514 20.1523C97.8257 20.0306 97.1 19.8886 96.3743 19.7264C95.6486 19.5438 94.9834 19.3004 94.3786 18.9962C93.7739 18.6717 93.2901 18.2356 92.9272 17.6879C92.5644 17.12 92.383 16.3696 92.383 15.4366C92.383 14.463 92.6551 13.6111 93.1994 12.8809C93.7437 12.1507 94.5097 11.593 95.4974 11.2076C96.5053 10.8019 97.6947 10.5991 99.0654 10.5991C100.114 10.5991 101.172 10.7309 102.24 10.9946C103.329 11.238 104.216 11.593 104.901 12.0595L103.662 14.3717C102.936 13.8849 102.18 13.5502 101.394 13.3677C100.608 13.1852 99.8214 13.0939 99.0352 13.0939C97.7652 13.0939 96.8178 13.3069 96.1929 13.7328C95.568 14.1385 95.2555 14.6658 95.2555 15.3149C95.2555 15.8625 95.4369 16.2884 95.7998 16.5927C96.1828 16.8766 96.6666 17.0997 97.2512 17.262C97.8559 17.4243 98.5212 17.5662 99.2469 17.6879C99.9725 17.7894 100.698 17.9313 101.424 18.1139C102.15 18.2761 102.805 18.5094 103.389 18.8136C103.994 19.1179 104.478 19.5438 104.841 20.0915C105.224 20.6391 105.415 21.3693 105.415 22.282C105.415 23.2556 105.133 24.0973 104.569 24.8072C104.004 25.5171 103.208 26.0749 102.18 26.4805C101.152 26.8659 99.9222 27.0586 98.4909 27.0586Z" fill="white"/>
<path d="M117.54 27.0586C116.209 27.0586 114.99 26.7544 113.881 26.1459C112.792 25.5171 111.916 24.5942 111.25 23.3773C110.605 22.1603 110.283 20.6391 110.283 18.8136C110.283 16.9882 110.595 15.467 111.22 14.25C111.865 13.033 112.732 12.1203 113.821 11.5118C114.929 10.9033 116.169 10.5991 117.54 10.5991C119.112 10.5991 120.503 10.9439 121.713 11.6335C122.922 12.3231 123.88 13.2866 124.585 14.5238C125.291 15.7408 125.643 17.1707 125.643 18.8136C125.643 20.4566 125.291 21.8966 124.585 23.1339C123.88 24.3711 122.922 25.3346 121.713 26.0242C120.503 26.7138 119.112 27.0586 117.54 27.0586ZM109.043 32.7784V10.7512H111.825V15.1019L111.643 18.8441L111.946 22.5862V32.7784H109.043ZM117.298 24.503C118.326 24.503 119.243 24.2697 120.049 23.8032C120.876 23.3367 121.521 22.6775 121.985 21.8256C122.468 20.9535 122.71 19.9495 122.71 18.8136C122.71 17.6575 122.468 16.6637 121.985 15.8321C121.521 14.9802 120.876 14.321 120.049 13.8545C119.243 13.388 118.326 13.1547 117.298 13.1547C116.29 13.1547 115.373 13.388 114.546 13.8545C113.74 14.321 113.095 14.9802 112.611 15.8321C112.147 16.6637 111.916 17.6575 111.916 18.8136C111.916 19.9495 112.147 20.9535 112.611 21.8256C113.095 22.6775 113.74 23.3367 114.546 23.8032C115.373 24.2697 116.29 24.503 117.298 24.503Z" fill="white"/>
<path d="M136.79 27.0586C135.077 27.0586 133.565 26.7037 132.254 25.9938C130.964 25.2839 129.956 24.3103 129.231 23.073C128.525 21.8358 128.172 20.416 128.172 18.8136C128.172 17.2113 128.515 15.7915 129.201 14.5542C129.906 13.317 130.864 12.3536 132.073 11.6639C133.303 10.954 134.684 10.5991 136.216 10.5991C137.768 10.5991 139.139 10.9439 140.328 11.6335C141.517 12.3231 142.444 13.2967 143.11 14.5542C143.795 15.7915 144.138 17.2417 144.138 18.9049C144.138 19.0266 144.128 19.1686 144.108 19.3309C144.108 19.4931 144.097 19.6452 144.077 19.7872H130.44V17.6879H142.565L141.386 18.4181C141.406 17.3837 141.195 16.4608 140.751 15.6495C140.308 14.8382 139.693 14.2094 138.907 13.7632C138.141 13.2967 137.244 13.0635 136.216 13.0635C135.208 13.0635 134.311 13.2967 133.524 13.7632C132.738 14.2094 132.123 14.8484 131.68 15.6799C131.236 16.4913 131.015 17.4243 131.015 18.479V18.9658C131.015 20.0408 131.257 21.0042 131.74 21.8561C132.244 22.6877 132.94 23.3367 133.827 23.8032C134.714 24.2697 135.732 24.503 136.881 24.503C137.828 24.503 138.685 24.3407 139.451 24.0162C140.237 23.6917 140.923 23.2049 141.507 22.5558L143.11 24.4421C142.384 25.294 141.477 25.9431 140.388 26.3893C139.32 26.8355 138.121 27.0586 136.79 27.0586Z" fill="white"/>
<path d="M148.169 26.8761V10.7512H150.95V15.1323L150.678 14.037C151.122 12.9215 151.868 12.0696 152.916 11.4814C153.964 10.8932 155.254 10.5991 156.786 10.5991V13.4286C156.665 13.4083 156.544 13.3981 156.423 13.3981C156.323 13.3981 156.222 13.3981 156.121 13.3981C154.569 13.3981 153.339 13.8646 152.432 14.7976C151.525 15.7307 151.071 17.0795 151.071 18.8441V26.8761H148.169Z" fill="white"/>
<path d="M167.434 27.0586C165.822 27.0586 164.391 26.7037 163.141 25.9938C161.891 25.2839 160.903 24.3103 160.178 23.073C159.452 21.8155 159.089 20.3957 159.089 18.8136C159.089 17.2113 159.452 15.7915 160.178 14.5542C160.903 13.317 161.891 12.3536 163.141 11.6639C164.391 10.954 165.822 10.5991 167.434 10.5991C169.027 10.5991 170.448 10.954 171.698 11.6639C172.968 12.3536 173.956 13.317 174.661 14.5542C175.387 15.7712 175.75 17.191 175.75 18.8136C175.75 20.416 175.387 21.8358 174.661 23.073C173.956 24.3103 172.968 25.2839 171.698 25.9938C170.448 26.7037 169.027 27.0586 167.434 27.0586ZM167.434 24.503C168.463 24.503 169.38 24.2697 170.186 23.8032C171.013 23.3367 171.658 22.6775 172.121 21.8256C172.585 20.9535 172.817 19.9495 172.817 18.8136C172.817 17.6575 172.585 16.6637 172.121 15.8321C171.658 14.9802 171.013 14.321 170.186 13.8545C169.38 13.388 168.463 13.1547 167.434 13.1547C166.406 13.1547 165.489 13.388 164.683 13.8545C163.877 14.321 163.231 14.9802 162.748 15.8321C162.264 16.6637 162.022 17.6575 162.022 18.8136C162.022 19.9495 162.264 20.9535 162.748 21.8256C163.231 22.6775 163.877 23.3367 164.683 23.8032C165.489 24.2697 166.406 24.503 167.434 24.503Z" fill="white"/>
</svg>
