<svg width="24" height="25" viewBox="0 0 24 25" fill="none" xmlns="http://www.w3.org/2000/svg">
<path d="M16.0002 22.9998H8.00023C3.38023 22.9998 2.52023 20.8498 2.30023 18.7598L1.55023 10.7498C1.44023 9.69977 1.41023 8.14977 2.45023 6.98977C3.35023 5.98977 4.84023 5.50977 7.00023 5.50977H17.0002C19.1702 5.50977 20.6602 5.99977 21.5502 6.98977C22.5902 8.14977 22.5602 9.69977 22.4502 10.7598L21.7002 18.7498C21.4802 20.8498 20.6202 22.9998 16.0002 22.9998ZM7.00023 6.99977C5.31023 6.99977 4.15023 7.32977 3.56023 7.98977C3.07023 8.52977 2.91023 9.35977 3.04023 10.5998L3.79023 18.6098C3.96023 20.1898 4.39023 21.4998 8.00023 21.4998H16.0002C19.6002 21.4998 20.0402 20.1898 20.2102 18.5998L20.9602 10.6098C21.0902 9.35977 20.9302 8.52977 20.4402 7.98977C19.8502 7.32977 18.6902 6.99977 17.0002 6.99977H7.00023Z" fill="#A9A9A9"/>
<path d="M16 7C15.59 7 15.25 6.66 15.25 6.25V5.45C15.25 3.67 15.25 3 12.8 3H11.2C8.75 3 8.75 3.67 8.75 5.45V6.25C8.75 6.66 8.41 7 8 7C7.59 7 7.25 6.66 7.25 6.25V5.45C7.25 3.69 7.25 1.5 11.2 1.5H12.8C16.75 1.5 16.75 3.69 16.75 5.45V6.25C16.75 6.66 16.41 7 16 7Z" fill="#A9A9A9"/>
<path d="M12 17C9.25 17 9.25 15.3 9.25 14.28V13.25C9.25 11.84 9.59 11.5 11 11.5H13C14.41 11.5 14.75 11.84 14.75 13.25V14.25C14.75 15.29 14.75 17 12 17ZM10.75 13C10.75 13.08 10.75 13.17 10.75 13.25V14.28C10.75 15.31 10.75 15.5 12 15.5C13.25 15.5 13.25 15.34 13.25 14.27V13.25C13.25 13.17 13.25 13.08 13.25 13C13.17 13 13.08 13 13 13H11C10.92 13 10.83 13 10.75 13Z" fill="#A9A9A9"/>
<path d="M14 15.0202C13.63 15.0202 13.3 14.7402 13.26 14.3602C13.21 13.9502 13.5 13.5702 13.91 13.5202C16.55 13.1902 19.08 12.1902 21.21 10.6402C21.54 10.3902 22.01 10.4702 22.26 10.8102C22.5 11.1402 22.43 11.6102 22.09 11.8602C19.75 13.5602 16.99 14.6502 14.09 15.0202C14.06 15.0202 14.03 15.0202 14 15.0202Z" fill="#A9A9A9"/>
<path d="M10.0002 15.0299C9.97023 15.0299 9.94023 15.0299 9.91023 15.0299C7.17023 14.7199 4.50023 13.7199 2.19023 12.1399C1.85023 11.9099 1.76023 11.4399 1.99023 11.0999C2.22023 10.7599 2.69023 10.6699 3.03023 10.8999C5.14023 12.3399 7.57023 13.2499 10.0702 13.5399C10.4802 13.5899 10.7802 13.9599 10.7302 14.3699C10.7002 14.7499 10.3802 15.0299 10.0002 15.0299Z" fill="#A9A9A9"/>
</svg>
