<svg width="25" height="25" viewBox="0 0 25 25" fill="none" xmlns="http://www.w3.org/2000/svg">
<path d="M13.4464 17.341H11.3041C9.78848 17.341 8.54639 16.0647 8.54639 14.4922C8.54639 14.025 8.93383 13.6375 9.40104 13.6375C9.86825 13.6375 10.2557 14.025 10.2557 14.4922C10.2557 15.1189 10.7229 15.6317 11.3041 15.6317H13.4464C13.8908 15.6317 14.2441 15.2329 14.2441 14.7429C14.2441 14.1275 14.0731 14.0363 13.6857 13.8996L10.2557 12.7031C9.52639 12.4524 8.54639 11.9168 8.54639 10.2417C8.54639 8.81728 9.67453 7.64355 11.0534 7.64355H13.1957C14.7113 7.64355 15.9534 8.91983 15.9534 10.4924C15.9534 10.9596 15.5659 11.347 15.0987 11.347C14.6315 11.347 14.2441 10.9596 14.2441 10.4924C14.2441 9.86565 13.7769 9.35286 13.1957 9.35286H11.0534C10.6089 9.35286 10.2557 9.75169 10.2557 10.2417C10.2557 10.857 10.4266 10.9482 10.8141 11.085L14.2441 12.2815C14.9734 12.5322 15.9534 13.0677 15.9534 14.7429C15.9534 16.1787 14.8252 17.341 13.4464 17.341Z" fill="#A9A9A9"/>
<path d="M12.2502 18.4827C11.7829 18.4827 11.3955 18.0953 11.3955 17.628V7.37223C11.3955 6.90502 11.7829 6.51758 12.2502 6.51758C12.7174 6.51758 13.1048 6.90502 13.1048 7.37223V17.628C13.1048 18.0953 12.7174 18.4827 12.2502 18.4827Z" fill="#A9A9A9"/>
<path d="M19.0862 0.255996H23.6444C24.1116 0.255996 24.499 0.643438 24.499 1.11065V5.66879C24.499 6.136 24.1116 6.52344 23.6444 6.52344C23.1772 6.52344 22.7897 6.136 22.7897 5.66879V1.9653H19.0862C18.619 1.9653 18.2316 1.57786 18.2316 1.11065C18.2316 0.643438 18.619 0.255996 19.0862 0.255996Z" fill="#A9A9A9"/>
<path d="M23.6421 0.254563C23.8586 0.254563 24.0751 0.33433 24.2461 0.50526C24.405 0.666092 24.4941 0.883096 24.4941 1.10921C24.4941 1.33533 24.405 1.55234 24.2461 1.71317L18.5484 7.41084C18.2179 7.74131 17.6709 7.74131 17.3405 7.41084C17.01 7.08038 17.01 6.5334 17.3405 6.20294L23.0382 0.50526C23.2091 0.33433 23.4256 0.254563 23.6421 0.254563Z" fill="#A9A9A9"/>
<path d="M12.25 24.75C5.49256 24.75 0 19.2574 0 12.5C0 5.74256 5.49256 0.25 12.25 0.25C12.7172 0.25 13.1047 0.637442 13.1047 1.10465C13.1047 1.57186 12.7172 1.9593 12.25 1.9593C6.43837 1.9593 1.7093 6.68837 1.7093 12.5C1.7093 18.3116 6.43837 23.0407 12.25 23.0407C18.0616 23.0407 22.7907 18.3116 22.7907 12.5C22.7907 12.0328 23.1781 11.6453 23.6453 11.6453C24.1126 11.6453 24.5 12.0328 24.5 12.5C24.5 19.2574 19.0074 24.75 12.25 24.75Z" fill="#A9A9A9"/>
</svg>
