<svg width="199" height="232" viewBox="0 0 199 232" fill="none" xmlns="http://www.w3.org/2000/svg">
<path d="M25.6206 194.333V207.879C25.6206 215.282 30.0562 222.088 37.79 226.554C43.7259 229.98 50.8705 231.714 57.7938 231.713C63.9469 231.713 69.9257 230.343 74.7188 227.576L188.437 161.92C195.046 158.105 198.836 151.981 198.836 145.117V131.571L25.6206 194.333Z" fill="url(#paint0_linear_167_453)"/>
<path d="M186.666 112.896C175.454 106.423 159.923 105.992 149.738 111.873L36.0178 177.529C29.4103 181.345 25.6201 187.469 25.6201 194.332C25.6201 201.735 30.0557 208.541 37.7896 213.007C43.7254 216.433 50.87 218.167 57.7933 218.166C63.9464 218.166 69.9252 216.796 74.7183 214.029L188.437 148.373C195.046 144.558 198.836 138.433 198.836 131.57C198.836 124.168 194.401 117.361 186.666 112.896Z" fill="#E9E5F6"/>
<path d="M51.0977 168.823L63.3549 175.899L67.4578 173.534L67.7407 159.214L51.0977 168.823Z" fill="url(#paint1_linear_167_453)"/>
<path d="M155.868 122.491L42.1489 188.146C35.8262 191.797 36.619 198.174 43.9198 202.389C51.221 206.604 62.2654 207.062 68.5882 203.411L182.307 137.756C188.63 134.105 187.837 127.729 180.536 123.514C173.235 119.298 162.191 118.84 155.868 122.491Z" fill="#221C36"/>
<path d="M67.5211 203.962L164.09 2.35359L160.514 0.297591C159.842 -0.127819 158.953 -0.114695 157.973 0.45101L67.5781 52.6407C65.4873 53.8477 63.792 57.0867 63.792 59.8745V205.234C65.1293 204.924 66.3829 204.499 67.5211 203.962Z" fill="url(#paint2_linear_167_453)"/>
<path d="M67.9229 63.8948V202.729L75.0426 199.685L164.961 147.801V7.86963L67.9229 63.8948Z" fill="url(#paint3_linear_167_453)"/>
<path d="M161.639 2.56869L71.2442 54.7584C69.1533 55.9653 67.458 59.2043 67.458 61.9921V203.991C67.8472 203.809 68.2278 203.62 68.5881 203.412L75.0425 199.685V92.9348C77.5972 93.6417 80.6321 93.1598 83.8911 91.278C92.9668 86.0378 100.324 71.9802 100.324 59.8791C100.324 55.5336 99.3715 52.0375 97.735 49.5756L135.148 27.9756C133.511 32.327 132.558 36.9233 132.558 41.2688C132.558 53.3699 139.916 58.9319 148.991 53.6921C152.25 51.8104 155.285 48.7881 157.84 45.1314V151.911L165.425 147.532V5.4307C165.425 2.64291 163.731 1.36125 161.639 2.56869Z" fill="url(#paint4_linear_167_453)"/>
<path d="M142.522 160.755C146.967 150.609 149.624 139.54 149.624 129.172C149.624 104.505 134.627 93.1669 116.126 103.848C97.6249 114.529 82.6274 143.185 82.627 167.853C82.627 178.221 85.2835 186.222 89.729 191.235L142.522 160.755Z" fill="url(#paint5_linear_167_453)"/>
<path d="M138.856 130.764L133.973 133.583C133.121 125.66 129.515 121.464 123.354 125.021C110.732 132.308 114.038 155.044 108.227 158.399C106.624 159.324 105.823 157.85 105.823 154.912C105.823 152.623 106.4 149.161 107.306 145.442C108.447 140.76 108.037 137.561 106.233 137.458C103.973 137.329 99.9662 144.058 99.1099 149.437C98.8655 150.973 98.6795 152.511 98.56 154.029L94.2353 156.526C92.9071 157.293 91.2471 160.808 91.2471 162.852C91.2471 165.502 92.307 166.522 94.0281 165.528L98.6103 162.883C99.6625 170.824 103.519 173.94 109.079 170.73C121.501 163.557 117.895 140.996 123.856 137.554C125.709 136.485 126.71 138.177 126.71 141.783C126.71 144.616 125.966 148.69 124.734 152.902C123.187 158.185 123.477 161.988 125.422 162.153L125.456 162.156C127.452 162.325 130.967 156.926 132.3 151.651C133.074 148.59 133.631 145.487 133.923 142.495L138.649 139.767C139.977 139 141.637 135.485 141.637 133.441C141.637 130.791 140.577 129.771 138.856 130.764Z" fill="white"/>
<path d="M61.0321 116.695C60.9592 116.644 60.8827 116.598 60.8031 116.557L48.7843 109.33V93.4244C48.7843 89.1015 47.3285 86.0748 45.0367 84.8035L45.0371 84.7999L31.1077 76.4288C29.2218 75.2214 26.7119 75.2698 23.9567 76.8606C18.0978 80.2435 13.3477 89.3188 13.3477 97.1309V126.15L3.57321 131.794C0.639695 133.487 -1.03932 138.916 0.713462 141.04L21.0969 165.745C21.2449 165.924 21.4088 166.065 21.5848 166.173V166.174L35.794 174.712L35.7944 174.711C37.3119 175.66 39.7543 174.017 41.0351 170.987L61.4186 122.746C62.5744 120.009 62.2373 117.56 61.0321 116.695Z" fill="url(#paint6_linear_167_453)"/>
<path d="M13.3473 126.149L3.57236 131.792C0.638841 133.486 -1.03972 138.915 0.713061 141.039L21.0965 165.744C21.2445 165.923 21.4084 166.064 21.5844 166.172V166.173L35.7936 174.711L35.794 174.71L27.5659 134.693L13.3473 126.149Z" fill="url(#paint7_linear_167_453)"/>
<path d="M14.9323 149.584L35.3158 174.288C36.7418 176.016 39.6088 174.361 41.0348 170.986L61.4183 122.745C63.1711 118.597 61.4921 115.106 58.559 116.8L48.7841 122.444V93.4244C48.7841 85.6123 44.0344 82.0216 38.1751 85.4045C32.3162 88.7875 27.5661 97.8627 27.5661 105.675V134.694L17.7912 140.338C14.8581 142.031 13.1795 147.46 14.9323 149.584Z" fill="url(#paint8_linear_167_453)"/>
<path d="M67.458 166.699V203.99C67.8472 203.809 68.2278 203.619 68.5881 203.411L84.3794 194.294V194.323L165.425 147.532V110.138L67.458 166.699Z" fill="url(#paint9_linear_167_453)"/>
<defs>
<linearGradient id="paint0_linear_167_453" x1="25.6206" y1="181.642" x2="198.836" y2="181.642" gradientUnits="userSpaceOnUse">
<stop stop-color="#7662BD"/>
<stop offset="0.222" stop-color="#E9E5F6"/>
<stop offset="0.375" stop-color="#A996EB"/>
<stop offset="0.437" stop-color="#BBACEF"/>
<stop offset="0.552" stop-color="#D9D1F5"/>
<stop offset="0.646" stop-color="#EBE7F9"/>
<stop offset="0.706" stop-color="#F2EFFA"/>
<stop offset="0.764" stop-color="#E9E4F8"/>
<stop offset="0.866" stop-color="#D0C6F3"/>
<stop offset="1" stop-color="#A996EB"/>
</linearGradient>
<linearGradient id="paint1_linear_167_453" x1="76.4729" y1="173.864" x2="59.6828" y2="164.17" gradientUnits="userSpaceOnUse">
<stop stop-color="#7662BD"/>
<stop offset="1" stop-color="#7662BD" stop-opacity="0"/>
</linearGradient>
<linearGradient id="paint2_linear_167_453" x1="97.5845" y1="75.4644" x2="103.285" y2="65.5908" gradientUnits="userSpaceOnUse">
<stop stop-color="#1A4C4E"/>
<stop offset="1" stop-color="#236568"/>
</linearGradient>
<linearGradient id="paint3_linear_167_453" x1="74.1524" y1="80.8836" x2="163.489" y2="132.462" gradientUnits="userSpaceOnUse">
<stop stop-color="#06DAAE"/>
<stop offset="1" stop-color="#9BF0DF"/>
</linearGradient>
<linearGradient id="paint4_linear_167_453" x1="86.544" y1="86.2962" x2="192.317" y2="147.364" gradientUnits="userSpaceOnUse">
<stop stop-color="#2F878A"/>
<stop offset="1" stop-color="#06DAAE"/>
</linearGradient>
<linearGradient id="paint5_linear_167_453" x1="76.921" y1="139.112" x2="155.465" y2="166.314" gradientUnits="userSpaceOnUse">
<stop stop-color="#2F878A"/>
<stop offset="1" stop-color="#06DAAE"/>
</linearGradient>
<linearGradient id="paint6_linear_167_453" x1="38.5374" y1="111.25" x2="49.9207" y2="91.5332" gradientUnits="userSpaceOnUse">
<stop stop-color="#00395E"/>
<stop offset="1" stop-color="#0197F8"/>
</linearGradient>
<linearGradient id="paint7_linear_167_453" x1="19.804" y1="152.271" x2="24.0441" y2="144.927" gradientUnits="userSpaceOnUse">
<stop stop-color="#00395E"/>
<stop offset="1" stop-color="#0197F8"/>
</linearGradient>
<linearGradient id="paint8_linear_167_453" x1="38.1755" y1="188.108" x2="38.1755" y2="109.651" gradientUnits="userSpaceOnUse">
<stop stop-color="#0072BC"/>
<stop offset="1" stop-color="#2F97F7"/>
</linearGradient>
<linearGradient id="paint9_linear_167_453" x1="125.418" y1="172.611" x2="110.724" y2="147.16" gradientUnits="userSpaceOnUse">
<stop stop-color="#1A4C4E"/>
<stop offset="1" stop-color="#1A4C4E" stop-opacity="0"/>
</linearGradient>
</defs>
</svg>
