<svg width="232" height="167" viewBox="0 0 232 167" fill="none" xmlns="http://www.w3.org/2000/svg">
<path d="M94.5388 151.708L33.4513 127.721V139.436C33.32 141.313 34.3799 143.123 36.6885 144.456L44.5472 148.993L43.7616 150.665V162.086C43.6797 163.256 44.9744 164.313 47.2694 164.412L89.1021 166.224C91.8533 166.343 94.4216 164.962 94.5374 163.392H94.5383V151.708H94.5388Z" fill="url(#paint0_linear_167_11)"/>
<path d="M47.2703 164.413L89.1031 166.224C91.8542 166.343 94.4225 164.962 94.5384 163.393H94.5393V151.708L43.7625 150.666V162.086C43.6801 163.256 44.9749 164.313 47.2703 164.413Z" fill="url(#paint1_linear_167_11)"/>
<path d="M154.583 8.28014L144.237 2.30042L144.229 2.30721C144.12 2.24068 144.017 2.16782 143.906 2.10355C138.715 -0.893326 132.391 -0.679261 126.555 2.68962L16.1534 66.4305C6.94414 71.7473 0 84.629 0 96.3948C0 104.395 3.23674 110.853 8.88111 114.111L20.0164 120.542L154.583 8.28014Z" fill="url(#paint2_linear_167_11)"/>
<path d="M155.042 8.53471C149.852 5.53783 143.527 5.75189 137.692 9.12078L27.2891 72.8617C18.0799 78.1784 11.1357 91.0602 11.1357 102.826C11.1357 110.826 14.3725 117.284 20.0169 120.542C22.4494 121.946 25.1299 122.646 27.8933 122.646C31.0264 122.646 34.2663 121.746 37.3673 119.955L147.77 56.2146C156.979 50.8974 163.923 38.0161 163.923 26.2503C163.922 18.2508 160.685 11.7932 155.042 8.53471Z" fill="#E9E5F6"/>
<path d="M61.6179 105.954L42.2636 99.1602L41.0991 106.164V117.801L61.6179 105.954Z" fill="url(#paint3_linear_167_11)"/>
<path d="M142.729 17.8484L32.3274 81.5893C26.1888 85.1333 21.2124 94.6413 21.2124 102.826C21.2124 111.01 26.1888 114.773 32.3269 111.228L142.729 47.4877C148.868 43.9437 153.844 34.4358 153.844 26.2512C153.844 18.0665 148.868 14.3044 142.729 17.8484Z" fill="#221C36"/>
<path d="M227.06 97.026L23.375 92.8022L23.3746 92.8027C22.9564 93.8016 22.5932 94.8226 22.2866 95.8611L129.07 157.513C130.944 158.595 134.217 158.459 136.381 157.21L229.923 103.203C231.117 102.513 231.721 101.629 231.71 100.792H231.713V97.1224L227.06 97.026Z" fill="url(#paint4_linear_167_11)"/>
<path d="M227.763 94.5647L119.009 31.5112L41.6502 76.1743V76.2064L32.3274 81.5892C28.7662 83.6452 25.6037 87.712 23.5703 92.3603L127.347 152.54L227.763 94.5647Z" fill="url(#paint5_linear_167_11)"/>
<path d="M230.448 95.2942L119.49 31.2329L111.641 35.764L198.858 86.119C194.748 86.7987 190.754 88.1188 187.381 90.0662C177.989 95.4884 176.969 103.691 185.103 108.387C188.024 110.073 191.729 111.074 195.712 111.418L156.997 133.77C156.401 131.471 154.667 129.331 151.746 127.645C143.613 122.949 129.406 123.538 120.014 128.96C116.641 130.907 114.354 133.214 113.177 135.586L27.3512 86.0348C25.7749 88.0003 24.4123 90.3237 23.375 92.802L129.07 153.825C130.944 154.907 134.217 154.771 136.381 153.522L229.923 99.5153C232.087 98.2658 232.321 96.3763 230.448 95.2942Z" fill="url(#paint6_linear_167_11)"/>
<path d="M133.067 97.2248C152.212 86.1714 154.291 69.4514 137.711 59.8788C121.132 50.3066 92.1712 51.5068 73.0264 62.5602C53.8816 73.6136 51.8021 90.3336 68.3822 99.9062C84.9619 109.478 113.922 108.278 133.067 97.2248Z" fill="url(#paint7_linear_167_11)"/>
<path d="M87.6871 92.3506L82.6342 95.2678C81.7594 95.773 80.7669 96.039 79.7566 96.039C78.7463 96.039 77.7539 95.773 76.879 95.2678C75.5045 94.4744 75.5045 92.4904 76.879 91.6971L81.7689 88.874C80.1745 87.6036 78.8798 86.1916 77.9235 84.7144C76.2757 82.1701 77.6479 78.7623 80.6022 78.0826L80.6516 78.0713C83.5308 77.4087 86.4987 78.7768 87.8496 81.4039C88.9262 83.4984 90.6061 85.3571 92.5101 86.4564C94.934 87.8557 97.4969 88.1385 99.4148 87.0316C105.583 83.4704 85.2872 76.0619 98.1418 68.6403C103.895 65.3185 111.477 65.0877 118.312 67.7763L123.054 65.0388C123.929 64.5336 124.921 64.2676 125.931 64.2676C126.942 64.2676 127.934 64.5336 128.809 65.0388C130.183 65.8321 130.183 67.8162 128.809 68.6095L124.333 71.1932C125.149 71.7982 125.919 72.4624 126.637 73.1804C129.035 75.5876 127.857 79.6951 124.553 80.4889C121.918 81.1224 119.184 80.034 117.66 77.7916C116.45 76.0098 114.945 74.4512 113.406 73.5628C111.431 72.4228 109.3 72.1499 107.641 73.1075C101.628 76.5792 121.614 84.1673 108.552 91.7084C102.176 95.3891 94.2244 95.1071 87.6871 92.3506Z" fill="white"/>
<path d="M166.972 58.6465L119.49 31.2329L119.009 31.5103L116.077 33.2034L111.642 35.764L41.6504 76.1739V76.206L32.3276 81.5883C30.3096 82.7532 28.4202 84.5648 26.7914 86.7607C26.7194 86.8575 26.6507 86.9571 26.5796 87.0553C26.4742 87.2015 26.3678 87.3472 26.2646 87.497C26.1442 87.6713 26.0275 87.8496 25.9103 88.0274C25.8614 88.1021 25.8112 88.1759 25.7627 88.2514C25.6164 88.4795 25.4736 88.7097 25.3341 88.9421C25.3183 88.9688 25.3016 88.9945 25.2857 89.0217C24.5599 90.2347 23.9214 91.4978 23.375 92.8015L64.1981 116.371L166.972 58.6465Z" fill="url(#paint8_linear_167_11)"/>
<path d="M94.5314 151.402L91.3933 127.249C91.1236 125.173 86.7808 124.505 83.9961 126.113L74.7186 131.47L56.8283 121.141C52.0121 118.36 43.5994 118.709 38.0383 121.92C32.4767 125.131 31.8726 129.987 36.6892 132.768L54.5795 143.097L45.3019 148.453C42.5178 150.061 43.6736 152.569 47.2706 152.724L89.1033 154.536C92.0296 154.663 94.7509 153.092 94.5314 151.402Z" fill="url(#paint9_linear_167_11)"/>
<defs>
<linearGradient id="paint0_linear_167_11" x1="35.2457" y1="146.976" x2="93.1146" y2="146.976" gradientUnits="userSpaceOnUse">
<stop stop-color="#59171D"/>
<stop offset="0.123" stop-color="#641A21"/>
<stop offset="0.711" stop-color="#972731"/>
<stop offset="1" stop-color="#AB2C37"/>
</linearGradient>
<linearGradient id="paint1_linear_167_11" x1="45.2591" y1="158.449" x2="93.3558" y2="158.449" gradientUnits="userSpaceOnUse">
<stop stop-color="#59171D"/>
<stop offset="0.123" stop-color="#641A21"/>
<stop offset="0.711" stop-color="#972731"/>
<stop offset="1" stop-color="#AB2C37"/>
</linearGradient>
<linearGradient id="paint2_linear_167_11" x1="36.0444" y1="119.066" x2="108.849" y2="-7.03416" gradientUnits="userSpaceOnUse">
<stop stop-color="#7662BD"/>
<stop offset="0.222" stop-color="#E9E5F6"/>
<stop offset="0.375" stop-color="#A996EB"/>
<stop offset="0.437" stop-color="#BBACEF"/>
<stop offset="0.552" stop-color="#D9D1F5"/>
<stop offset="0.646" stop-color="#EBE7F9"/>
<stop offset="0.706" stop-color="#F2EFFA"/>
<stop offset="0.764" stop-color="#E9E4F8"/>
<stop offset="0.866" stop-color="#D0C6F3"/>
<stop offset="1" stop-color="#A996EB"/>
</linearGradient>
<linearGradient id="paint3_linear_167_11" x1="51.9303" y1="102.606" x2="48.9706" y2="116.159" gradientUnits="userSpaceOnUse">
<stop stop-color="#7662BD"/>
<stop offset="1" stop-color="#7662BD" stop-opacity="0"/>
</linearGradient>
<linearGradient id="paint4_linear_167_11" x1="127.543" y1="125.523" x2="139.218" y2="125.523" gradientUnits="userSpaceOnUse">
<stop stop-color="#1A4C4E"/>
<stop offset="1" stop-color="#236568"/>
</linearGradient>
<linearGradient id="paint5_linear_167_11" x1="27.3614" y1="92.0254" x2="235.101" y2="92.0254" gradientUnits="userSpaceOnUse">
<stop stop-color="#06DAAE"/>
<stop offset="1" stop-color="#9BF0DF"/>
</linearGradient>
<linearGradient id="paint6_linear_167_11" x1="27.3888" y1="92.8943" x2="327.149" y2="92.8943" gradientUnits="userSpaceOnUse">
<stop stop-color="#2F878A"/>
<stop offset="1" stop-color="#06DAAE"/>
</linearGradient>
<linearGradient id="paint7_linear_167_11" x1="84.5381" y1="69.1949" x2="315.997" y2="202.828" gradientUnits="userSpaceOnUse">
<stop stop-color="#2F878A"/>
<stop offset="1" stop-color="#06DAAE"/>
</linearGradient>
<linearGradient id="paint8_linear_167_11" x1="84.5526" y1="57.3277" x2="101.703" y2="87.0336" gradientUnits="userSpaceOnUse">
<stop stop-color="#1A4C4E"/>
<stop offset="1" stop-color="#1A4C4E" stop-opacity="0"/>
</linearGradient>
<linearGradient id="paint9_linear_167_11" x1="127.369" y1="173.475" x2="179.424" y2="203.529" gradientUnits="userSpaceOnUse">
<stop stop-color="#C62834"/>
<stop offset="0.474" stop-color="#E33746"/>
<stop offset="1" stop-color="#FF4557"/>
</linearGradient>
</defs>
</svg>
