<svg width="706" height="631" viewBox="0 0 706 631" fill="none" xmlns="http://www.w3.org/2000/svg">
<path d="M669.009 317.071C669.009 317.071 669.009 308.235 656.639 295.989C644.269 283.743 636.424 276.64 636.424 276.64C636.424 276.64 630.274 296.855 641.725 309.172C650.131 317.822 659.246 325.755 668.974 332.886L669.009 317.071Z" fill="#EF5D32"/>
<path d="M651.161 371.957C651.161 371.957 651.161 363.121 638.791 350.875C626.422 338.629 618.611 331.525 618.611 331.525C618.611 331.525 612.444 351.741 623.912 364.058C632.318 372.708 641.433 380.641 651.161 387.772V371.957Z" fill="#EF5D32"/>
<path d="M668.232 332.039C668.232 332.039 669.169 323.309 682.705 312.371C696.241 301.433 704.847 295.283 704.847 295.283C704.847 295.283 708.823 316.029 696.17 327.091C686.898 334.807 676.997 341.734 666.571 347.801L668.232 332.039Z" fill="#EF5D32"/>
<path d="M646.674 396.855C646.674 396.855 648.441 388.267 663.125 378.813C677.81 369.359 686.928 364.146 686.928 364.146C686.928 364.146 688.695 385.21 674.965 394.841C664.932 401.542 654.358 407.394 643.352 412.335L646.674 396.855Z" fill="#EF5D32"/>
<path d="M650.72 467.539C650.72 467.539 650.72 458.703 663.089 446.439C675.459 434.176 683.287 427.107 683.287 427.107C683.287 427.107 689.455 447.323 677.986 459.622C669.583 468.281 660.468 476.22 650.737 483.354L650.72 467.539Z" fill="#EF5D32"/>
<path d="M650.526 484.786C650.526 484.786 651.763 476.092 641.337 462.168C630.911 448.243 624.072 440.149 624.072 440.149C624.072 440.149 615.113 459.287 624.673 473.088C631.76 482.849 639.651 491.999 648.264 500.443L650.526 484.786Z" fill="#EF5D32"/>
<path d="M638.386 535.909C638.386 535.909 638.386 527.073 650.755 514.827C663.125 502.581 670.971 495.478 670.971 495.478C670.971 495.478 677.121 515.693 665.67 528.01C657.261 536.663 648.147 544.601 638.421 551.742L638.386 535.909Z" fill="#EF5D32"/>
<path d="M646.602 582.26C646.602 582.26 644.375 573.76 653.158 558.739C661.94 543.719 667.825 534.919 667.825 534.919C667.825 534.919 678.887 552.908 670.952 567.716C665.017 578.215 658.213 588.198 650.613 597.563L646.602 582.26Z" fill="#EF5D32"/>
<path d="M670.123 314.826C669.504 323.975 668.383 333.084 666.765 342.11C661.888 367.238 649.73 383.46 644.871 406.15C640.011 428.839 653.971 458.085 650.172 487.242C646.373 516.399 635.099 532.604 638.333 552.059C641.566 571.515 658.601 624.21 658.601 624.21" stroke="#263238" stroke-linecap="round" stroke-linejoin="round"/>
<path d="M668.125 337.887L681.378 327.709" stroke="#263238" stroke-linecap="round" stroke-linejoin="round"/>
<path d="M668.744 326.172L663.178 316.294" stroke="#263238" stroke-linecap="round" stroke-linejoin="round"/>
<path d="M645.613 405.108C645.613 405.108 656.711 396.785 668.126 388.462" stroke="#263238" stroke-linecap="round" stroke-linejoin="round"/>
<path d="M651.162 387.773C651.162 387.773 641.903 369.642 631.424 357.626" stroke="#263238" stroke-linecap="round" stroke-linejoin="round"/>
<path d="M651.162 480.051C657.493 468.352 665.493 457.637 674.912 448.243" stroke="#263238" stroke-linecap="round" stroke-linejoin="round"/>
<path d="M649.006 492.385C645.639 484.452 641.613 476.815 636.973 469.554C630.505 459.994 629.568 458.757 629.568 458.757" stroke="#263238" stroke-linecap="round" stroke-linejoin="round"/>
<path d="M638.386 552.06C641.203 545.095 644.547 538.355 648.388 531.898C652.231 525.896 656.563 520.222 661.34 514.934" stroke="#263238" stroke-linecap="round" stroke-linejoin="round"/>
<path d="M650.614 597.562C649.97 590.903 651.117 584.192 653.936 578.124C658.566 569.183 663.796 557.467 665.952 552.837" stroke="#263238" stroke-linecap="round" stroke-linejoin="round"/>
<path d="M568.603 434.495C568.603 434.495 567.649 428.981 574.028 419.916C580.408 410.851 584.631 405.603 584.631 405.603C584.631 405.603 590.674 417.619 584.843 426.56C580.512 432.903 575.659 438.873 570.335 444.408L568.603 434.495Z" fill="#EF5D32"/>
<path d="M585.762 466.973C585.762 466.973 584.807 461.46 591.187 452.395C597.566 443.329 601.789 438.081 601.789 438.081C601.789 438.081 607.833 450.097 602.001 459.057C597.667 465.391 592.814 471.355 587.493 476.887L585.762 466.973Z" fill="#EF5D32"/>
<path d="M570.706 443.79C570.706 443.79 569.186 438.488 559.502 433.028C549.819 427.568 543.775 424.705 543.775 424.705C543.775 424.705 543.528 438.153 552.611 443.701C559.261 447.53 566.218 450.798 573.409 453.473L570.706 443.79Z" fill="#EF5D32"/>
<path d="M591.275 482.101C591.275 482.101 589.19 476.905 579.012 472.558C568.833 468.211 562.472 465.949 562.472 465.949C562.472 465.949 563.638 479.344 573.322 483.903C580.339 487.012 587.603 489.53 595.039 491.431L591.275 482.101Z" fill="#EF5D32"/>
<path d="M596.399 526.861C596.399 526.861 595.462 521.347 586.397 514.968C577.332 508.589 571.624 505.037 571.624 505.037C571.624 505.037 569.963 518.379 578.463 524.846C584.672 529.368 591.251 533.358 598.131 536.774L596.399 526.861Z" fill="#EF5D32"/>
<path d="M598.413 537.658C598.413 537.658 596.646 532.357 601.718 522.461C606.789 512.566 610.147 506.787 610.147 506.787C610.147 506.787 617.834 517.814 613.345 527.515C609.964 534.403 606.009 540.993 601.523 547.218L598.413 537.658Z" fill="#EF5D32"/>
<path d="M613.858 582.101C613.858 582.101 614.494 576.552 623.17 569.731C631.847 562.91 637.307 558.97 637.307 558.97C637.307 558.97 639.728 572.205 631.617 579.15C625.676 584.011 619.34 588.367 612.674 592.173L613.858 582.101Z" fill="#EF5D32"/>
<path d="M611.543 568.388C611.543 568.388 610.589 562.875 601.542 556.496C592.494 550.116 586.804 546.564 586.804 546.564C586.804 546.564 585.143 559.906 593.643 566.391C599.857 570.906 606.435 574.895 613.311 578.319L611.543 568.388Z" fill="#EF5D32"/>
<path d="M611.544 598.358C611.544 598.358 612.003 592.774 604.864 584.309C597.725 575.845 593.095 570.968 593.095 570.968C593.095 570.968 588.094 583.444 594.686 591.873C599.517 597.808 604.837 603.329 610.59 608.377L611.544 598.358Z" fill="#EF5D32"/>
<path d="M567.666 433.187C569.049 438.859 570.742 444.452 572.738 449.939C578.516 465.171 587.899 474.024 593.413 487.719C598.926 501.414 593.413 521.294 598.855 539.159C604.298 557.025 613.31 565.966 613.31 578.513C613.31 591.059 608.433 625.959 608.433 625.959" stroke="#263238" stroke-linecap="round" stroke-linejoin="round"/>
<path d="M571.43 447.43L562.012 442.5" stroke="#263238" stroke-linecap="round" stroke-linejoin="round"/>
<path d="M569.769 440.15L572.172 433.364" stroke="#263238" stroke-linecap="round" stroke-linejoin="round"/>
<path d="M592.83 487.154C592.83 487.154 584.966 483.143 576.926 479.149" stroke="#263238" stroke-linecap="round" stroke-linejoin="round"/>
<path d="M587.476 476.888C589.794 469.607 592.843 462.579 596.576 455.912" stroke="#263238" stroke-linecap="round" stroke-linejoin="round"/>
<path d="M597.495 534.741C592.251 528.106 586.073 522.267 579.152 517.406" stroke="#263238" stroke-linecap="round" stroke-linejoin="round"/>
<path d="M600.181 542.235C601.438 536.903 603.135 531.684 605.252 526.632C608.274 519.934 608.786 519.051 608.786 519.051" stroke="#263238" stroke-linecap="round" stroke-linejoin="round"/>
<path d="M612.886 588.038C615.95 584.24 619.344 580.722 623.029 577.523C625.373 575.798 627.571 573.883 629.602 571.798" stroke="#263238" stroke-linecap="round" stroke-linejoin="round"/>
<path d="M613.31 578.514C610.785 574.441 607.956 570.566 604.845 566.922C601.782 563.578 598.449 560.493 594.879 557.697" stroke="#263238" stroke-linecap="round" stroke-linejoin="round"/>
<path d="M610.59 608.377C610.274 604.128 608.828 600.04 606.402 596.537C602.532 591.431 597.973 584.645 596.117 581.977" stroke="#263238" stroke-linecap="round" stroke-linejoin="round"/>
<path d="M66.694 357.52L58.9541 335.413L66.694 344.796L60.6152 311.628L70.0162 335.413L73.3383 288.956L78.8693 333.187L84.9481 324.351V335.413L92.1402 320.481L88.2703 346.457L94.8969 342.04L84.4003 356.406L66.694 357.52Z" fill="#EF5D32"/>
<path d="M91.0271 351.989H62.2764L67.454 410.038H85.8495L91.0271 351.989Z" fill="#263238" stroke="#263238" stroke-linecap="round" stroke-linejoin="round"/>
<path d="M144.959 409.384H47.0088V616.841H144.959V409.384Z" fill="white" stroke="#263238" stroke-linecap="round" stroke-linejoin="round"/>
<path d="M150.314 409.384H95.9756V616.841H150.314V409.384Z" fill="white" stroke="#263238" stroke-linecap="round" stroke-linejoin="round"/>
<path d="M144.2 409.384H95.9756V616.841H144.2V409.384Z" fill="#263238" stroke="#263238" stroke-linecap="round" stroke-linejoin="round"/>
<path d="M138.775 568.6H95.9756V611.081H138.775V568.6Z" fill="#EF5D32" stroke="#263238" stroke-linecap="round" stroke-linejoin="round"/>
<path d="M138.775 570.896H95.9756V576.339H138.775V570.896Z" fill="white" stroke="#263238" stroke-linecap="round" stroke-linejoin="round"/>
<path d="M138.775 602.174H95.9756V607.617H138.775V602.174Z" fill="white" stroke="#263238" stroke-linecap="round" stroke-linejoin="round"/>
<path d="M104.086 569.482V623.202" stroke="#263238" stroke-linecap="round" stroke-linejoin="round"/>
<path d="M119.019 569.482V623.202" stroke="#263238" stroke-linecap="round" stroke-linejoin="round"/>
<path d="M132.131 569.482V623.202" stroke="#263238" stroke-linecap="round" stroke-linejoin="round"/>
<path d="M138.775 417.088H95.9756V479.555H138.775V417.088Z" fill="#EF5D32" stroke="#263238" stroke-linecap="round" stroke-linejoin="round"/>
<path d="M138.775 419.704H95.9756V425.889H138.775V419.704Z" fill="white" stroke="#263238" stroke-linecap="round" stroke-linejoin="round"/>
<path d="M138.775 459.747H95.9756V465.932H138.775V459.747Z" fill="white" stroke="#263238" stroke-linecap="round" stroke-linejoin="round"/>
<path d="M104.086 418.078V479.131" stroke="#263238" stroke-linecap="round" stroke-linejoin="round"/>
<path d="M119.019 418.078V479.131" stroke="#263238" stroke-linecap="round" stroke-linejoin="round"/>
<path d="M132.131 418.078V479.131" stroke="#263238" stroke-linecap="round" stroke-linejoin="round"/>
<path d="M138.775 492.366H95.9756V554.833H138.775V492.366Z" fill="#EF5D32" stroke="#263238" stroke-linecap="round" stroke-linejoin="round"/>
<path d="M138.775 494.982H95.9756V501.167H138.775V494.982Z" fill="white" stroke="#263238" stroke-linecap="round" stroke-linejoin="round"/>
<path d="M138.775 535.024H95.9756V541.209H138.775V535.024Z" fill="white" stroke="#263238" stroke-linecap="round" stroke-linejoin="round"/>
<path d="M104.086 493.374V554.41" stroke="#263238" stroke-linecap="round" stroke-linejoin="round"/>
<path d="M119.019 493.374V554.41" stroke="#263238" stroke-linecap="round" stroke-linejoin="round"/>
<path d="M132.131 493.374V554.41" stroke="#263238" stroke-linecap="round" stroke-linejoin="round"/>
<path d="M144.942 478.689H95.9756V485.793H144.942V478.689Z" fill="white" stroke="#263238" stroke-linecap="round" stroke-linejoin="round"/>
<path d="M144.942 554.445H95.9756V561.549H144.942V554.445Z" fill="white" stroke="#263238" stroke-linecap="round" stroke-linejoin="round"/>
<path d="M144.941 409.384V616.824" stroke="#263238" stroke-linecap="round" stroke-linejoin="round"/>
<path d="M89.0654 409.383V616.823H95.9748V417.088H144.093V409.295L89.0654 409.383Z" fill="white" stroke="#263238" stroke-linecap="round" stroke-linejoin="round"/>
<path d="M95.9756 417.088V409.384" stroke="#263238" stroke-linecap="round" stroke-linejoin="round"/>
<path d="M144.571 314.085C139.428 304.172 137.272 297.068 137.272 295.425C137.272 292.173 144.341 290.229 144.341 290.229C155.368 284.398 207.232 292.827 230.575 296.715C243.643 298.993 256.862 300.292 270.123 300.602C270.123 300.602 273.357 298.022 277.191 294.771C281.026 291.519 299.227 270.137 306.366 268.264C313.505 266.391 319.973 270.862 319.973 270.862C319.973 270.862 331.653 277.93 329.692 279.291C327.73 280.652 299.227 305.214 292.088 309.756C284.949 314.297 270.052 312.353 257.082 314.951C245.914 317.178 200.676 319.934 190.303 320.782C182.513 322.63 174.337 321.949 166.96 318.839" fill="white"/>
<mask id="mask0_214_1797" style="mask-type:luminance" maskUnits="userSpaceOnUse" x="137" y="267" width="193" height="55">
<path d="M144.571 314.085C139.428 304.172 137.272 297.068 137.272 295.425C137.272 292.173 144.341 290.229 144.341 290.229C155.368 284.398 207.232 292.827 230.575 296.715C243.643 298.993 256.862 300.292 270.123 300.602C270.123 300.602 273.357 298.022 277.191 294.771C281.026 291.519 299.227 270.137 306.366 268.264C313.505 266.391 319.973 270.862 319.973 270.862C319.973 270.862 331.653 277.93 329.692 279.291C327.73 280.652 299.227 305.214 292.088 309.756C284.949 314.297 270.052 312.353 257.082 314.951C245.914 317.178 200.676 319.934 190.303 320.782C182.513 322.63 174.337 321.949 166.96 318.839" fill="white"/>
</mask>
<g mask="url(#mask0_214_1797)">
<path d="M320.096 270.791C320.096 270.791 313.611 266.25 306.489 268.194C299.368 270.138 281.202 291.537 277.314 294.7C273.427 297.863 270.246 300.532 270.246 300.532C256.985 300.222 243.766 298.922 230.698 296.644C207.355 292.756 155.491 284.274 144.464 290.159C144.464 290.159 137.396 292.103 137.396 295.354C137.641 297.172 138.11 298.952 138.792 300.655L139.763 301.009C139.763 301.009 152.716 299.648 180.672 300.32C208.627 300.991 273.285 304.826 277.438 306.328C279.205 306.999 291.734 304.172 305.623 299.259C316.226 290.618 328.684 279.821 329.939 279.061C331.777 277.913 320.096 270.791 320.096 270.791Z" fill="#EF5D32"/>
<path opacity="0.5" d="M320.096 270.791C320.096 270.791 313.611 266.25 306.489 268.194C299.368 270.138 281.202 291.537 277.314 294.7C273.427 297.863 270.246 300.532 270.246 300.532C256.985 300.222 243.766 298.922 230.698 296.644C207.355 292.756 155.491 284.274 144.464 290.159C144.464 290.159 137.396 292.103 137.396 295.354C137.641 297.172 138.11 298.952 138.792 300.655L139.763 301.009C139.763 301.009 152.716 299.648 180.672 300.32C208.627 300.991 273.285 304.826 277.438 306.328C279.205 306.999 291.734 304.172 305.623 299.259C316.226 290.618 328.684 279.821 329.939 279.061C331.777 277.913 320.096 270.791 320.096 270.791Z" fill="white"/>
</g>
<path d="M144.571 314.085C139.428 304.172 137.272 297.068 137.272 295.425C137.272 292.173 144.341 290.229 144.341 290.229C155.368 284.398 207.232 292.827 230.575 296.715C243.643 298.993 256.862 300.292 270.123 300.602C270.123 300.602 273.357 298.022 277.191 294.771C281.026 291.519 299.227 270.137 306.366 268.264C313.505 266.391 319.973 270.862 319.973 270.862C319.973 270.862 331.653 277.93 329.692 279.291C327.73 280.652 299.227 305.214 292.088 309.756C284.949 314.297 270.052 312.353 257.082 314.951C245.914 317.178 200.676 319.934 190.303 320.782C182.513 322.63 174.337 321.949 166.96 318.839" stroke="#263238" stroke-linecap="round" stroke-linejoin="round"/>
<path d="M400.641 371.728C401.814 369.502 403.573 367.639 405.729 366.34C407.884 365.041 410.353 364.356 412.87 364.359H530.735C530.735 364.359 539.253 364.359 536.708 380.546C534.164 396.733 499.21 495.567 490.764 525.448C482.317 555.33 480.532 618.309 480.532 618.309H339.164C339.164 618.309 350.367 467.699 400.641 371.728Z" fill="white"/>
<mask id="mask1_214_1797" style="mask-type:luminance" maskUnits="userSpaceOnUse" x="339" y="364" width="199" height="255">
<path d="M400.642 371.727C401.815 369.501 403.574 367.638 405.73 366.339C407.885 365.04 410.354 364.355 412.871 364.358H530.736C530.736 364.358 539.254 364.358 536.709 380.545C534.164 396.732 499.211 495.566 490.765 525.447C482.318 555.329 480.533 618.308 480.533 618.308H339.165C339.165 618.308 350.368 467.698 400.642 371.727Z" fill="white"/>
</mask>
<g mask="url(#mask1_214_1797)">
<path opacity="0.16" d="M453.727 364.358H412.871C410.355 364.355 407.886 365.04 405.73 366.339C403.575 367.638 401.816 369.501 400.643 371.727C350.369 467.698 339.042 618.255 339.042 618.255H402.446L418.084 558.863L483.29 572.311C483.75 567.327 484.28 562.256 484.898 557.255L483.467 541.351C483.467 541.351 470.108 527.303 465.902 523.786C461.696 520.27 464.488 513.926 463.782 486.518C463.075 459.11 438.477 439.407 429.323 422.531C420.17 405.656 434.253 395.106 446.906 378.23C451.412 372.134 453.25 367.645 453.727 364.358Z" fill="black"/>
</g>
<path d="M400.641 371.728C401.814 369.502 403.573 367.639 405.729 366.34C407.884 365.041 410.353 364.356 412.87 364.359H530.735C530.735 364.359 539.253 364.359 536.708 380.546C534.164 396.733 499.21 495.567 490.764 525.448C482.317 555.33 480.532 618.309 480.532 618.309H339.164C339.164 618.309 350.367 467.699 400.641 371.728Z" stroke="#263238" stroke-linecap="round" stroke-linejoin="round"/>
<path d="M510.29 392.473C498.38 420.27 473.181 530.307 469.081 618.256H480.461C480.461 618.256 482.228 555.205 490.693 525.394C499.157 495.584 534.146 396.732 536.637 380.492C539.129 364.253 530.664 364.306 530.664 364.306C530.664 364.306 519.85 370.19 510.29 392.473Z" fill="#263238" stroke="#263238" stroke-linecap="round" stroke-linejoin="round"/>
<path d="M303.238 336.915C303.238 336.915 284.436 325.889 277.315 306.451C270.194 287.012 333.067 255.876 360.369 253.932C387.67 251.989 395.375 259.11 411.615 286.995C427.854 314.88 438.846 353.12 430.417 371.922C421.987 390.724 407.727 395.265 418.047 410.798C428.367 426.331 457.595 470.437 455.651 491.183C453.707 511.929 433.615 530.059 404.405 532.038C375.195 534.018 336.318 516.47 303.91 487.861C271.501 459.252 279.913 417.177 291.54 403.57C303.168 389.964 320.715 384.768 322.005 371.162C323.295 357.555 303.238 336.915 303.238 336.915Z" fill="#263238" stroke="#263238" stroke-linecap="round" stroke-linejoin="round"/>
<path d="M383.377 306.15C393.361 324.74 405.854 349.639 409.76 364.677C416.581 391.007 381.486 407.582 391.223 420.252" stroke="white" stroke-linecap="round" stroke-linejoin="round"/>
<path d="M369.77 281.8C369.77 281.8 373.657 288.426 379.029 298.181" stroke="white" stroke-linecap="round" stroke-linejoin="round"/>
<path d="M422.146 328.575C423.298 332.059 424.045 335.664 424.373 339.319" stroke="white" stroke-linecap="round" stroke-linejoin="round"/>
<path d="M376.52 272.133C376.52 272.133 407.232 294.822 419.495 321.983" stroke="white" stroke-linecap="round" stroke-linejoin="round"/>
<path d="M333.898 289.15C311.968 295.3 280.425 305.284 282.988 311.045" stroke="white" stroke-linecap="round" stroke-linejoin="round"/>
<path d="M354.166 283.743C354.166 283.743 349.483 284.909 342.503 286.783" stroke="white" stroke-linecap="round" stroke-linejoin="round"/>
<path d="M327.042 272.292C339.603 268.334 352.76 266.599 365.918 267.168" stroke="white" stroke-linecap="round" stroke-linejoin="round"/>
<path d="M318.1 275.951C320.086 274.916 322.14 274.018 324.249 273.265" stroke="white" stroke-linecap="round" stroke-linejoin="round"/>
<path d="M144.571 314.084C141.595 308.634 139.224 302.875 137.502 296.908C139.216 302.877 141.587 308.638 144.571 314.084ZM137.308 295.901C137.308 296.007 137.308 296.131 137.308 296.29C137.343 296.131 137.326 296.007 137.308 295.901ZM144.571 314.067C151.18 326.585 159.402 338.181 169.027 348.561C192.371 373.848 259.803 439.99 266.218 444.532C272.632 449.073 270.759 462.026 266.218 474.997C261.676 487.967 244.818 506.804 245.472 527.515C246.126 548.225 252.541 580.033 251.957 586.518C251.374 593.003 235.152 615.057 235.152 615.057H402.426C402.426 615.057 381.574 588.55 381.574 579.485C381.574 570.42 410.201 454.268 411.491 445.839C412.781 437.41 407.604 431.579 397.231 430.925C386.858 430.271 347.31 421.842 345.366 415.357C343.422 408.872 355.739 384.238 355.739 384.238L316.863 386.182C316.863 386.182 314.919 403.04 312.322 406.292C309.724 409.543 305.836 403.04 296.753 398.516C287.67 393.993 270.247 390.087 263.691 384.892C257.135 379.697 194.968 321.277 194.968 321.277" fill="white"/>
<mask id="mask2_214_1797" style="mask-type:luminance" maskUnits="userSpaceOnUse" x="137" y="295" width="275" height="321">
<path d="M144.573 314.083C141.596 308.633 139.226 302.874 137.504 296.907C139.218 302.876 141.589 308.637 144.573 314.083ZM137.31 295.9C137.31 296.006 137.31 296.13 137.31 296.289C137.345 296.13 137.328 296.006 137.31 295.9ZM144.573 314.066C151.182 326.584 159.404 338.18 169.029 348.56C192.373 373.847 259.805 439.989 266.22 444.531C272.634 449.072 270.761 462.025 266.22 474.996C261.678 487.966 244.82 506.803 245.474 527.514C246.128 548.224 252.542 580.032 251.959 586.517C251.376 593.002 235.154 615.056 235.154 615.056H402.428C402.428 615.056 381.576 588.549 381.576 579.484C381.576 570.419 410.203 454.267 411.493 445.838C412.783 437.409 407.606 431.578 397.233 430.924C386.86 430.27 347.312 421.841 345.368 415.356C343.424 408.871 355.741 384.237 355.741 384.237L316.865 386.181C316.865 386.181 314.921 403.039 312.323 406.291C309.726 409.542 305.838 403.039 296.755 398.515C287.672 393.992 270.249 390.086 263.693 384.891C257.137 379.696 194.97 321.276 194.97 321.276" fill="white"/>
</mask>
<g mask="url(#mask2_214_1797)">
<path d="M273.623 389.892C276.857 395.546 280.091 400.653 280.091 400.653C280.091 400.653 290.994 406.785 293.715 406.785C296.436 406.785 312.8 415.621 312.8 415.621C312.8 415.621 326.442 412.21 321.635 400.618C320.119 397.65 318.204 394.904 315.945 392.454C315.132 397.596 313.825 404.329 312.287 406.255C309.69 409.489 305.802 403.003 296.719 398.48C290.835 395.546 281.31 392.86 273.623 389.892Z" fill="#EF5D32"/>
<path d="M240.331 363.65C220.31 345.114 194.97 321.346 194.97 321.346L180.232 319.226L178.465 320.215C178.465 320.215 220.062 357.024 228.916 361.124C232.497 362.77 236.389 363.631 240.331 363.65Z" fill="#EF5D32"/>
<path d="M261.307 382.841L259.717 381.428C260.53 382.771 260.989 383.619 260.989 383.619L261.307 382.841Z" fill="#EF5D32"/>
<g opacity="0.5">
<path d="M273.623 389.892C276.857 395.546 280.091 400.653 280.091 400.653C280.091 400.653 290.994 406.785 293.715 406.785C296.436 406.785 312.8 415.621 312.8 415.621C312.8 415.621 326.442 412.21 321.635 400.618C320.119 397.65 318.204 394.904 315.945 392.454C315.132 397.596 313.825 404.329 312.287 406.255C309.69 409.489 305.802 403.003 296.719 398.48C290.835 395.546 281.31 392.86 273.623 389.892Z" fill="white"/>
<path d="M240.331 363.65C220.31 345.114 194.97 321.346 194.97 321.346L180.232 319.226L178.465 320.215C178.465 320.215 220.062 357.024 228.916 361.124C232.497 362.77 236.389 363.631 240.331 363.65Z" fill="white"/>
<path d="M261.307 382.841L259.717 381.428C260.53 382.771 260.989 383.619 260.989 383.619L261.307 382.841Z" fill="white"/>
</g>
</g>
<path d="M137.273 295.424C137.265 295.547 137.265 295.671 137.273 295.795M137.502 296.908C139.224 302.875 141.595 308.634 144.571 314.084C141.587 308.638 139.216 302.877 137.502 296.908ZM137.502 296.908C137.454 296.74 137.418 296.569 137.396 296.396M144.571 314.067C151.18 326.585 159.402 338.181 169.027 348.561C192.371 373.848 259.803 439.99 266.218 444.532C272.632 449.073 270.759 462.026 266.218 474.997C261.676 487.967 244.818 506.804 245.472 527.515C246.126 548.225 252.541 580.033 251.957 586.518C251.374 593.003 235.152 615.057 235.152 615.057H402.426C402.426 615.057 381.574 588.55 381.574 579.485C381.574 570.42 410.201 454.268 411.491 445.839C412.781 437.41 407.604 431.579 397.231 430.925C386.858 430.271 347.31 421.842 345.366 415.357C343.422 408.872 355.739 384.238 355.739 384.238L316.863 386.182C316.863 386.182 314.919 403.04 312.322 406.292C309.724 409.543 305.836 403.04 296.753 398.516C287.67 393.993 270.247 390.087 263.691 384.892C257.135 379.697 194.968 321.277 194.968 321.277M137.308 295.901C137.308 296.007 137.308 296.131 137.308 296.29C137.343 296.131 137.326 296.007 137.308 295.901Z" stroke="#263238" stroke-linecap="round" stroke-linejoin="round"/>
<path d="M194.968 321.348C194.968 321.348 174.258 321.737 162.701 312.212" stroke="#263238" stroke-linecap="round" stroke-linejoin="round"/>
<path d="M345.384 415.357C343.44 408.889 355.757 384.238 355.757 384.238L316.881 386.182C316.881 386.182 314.937 403.04 312.339 406.292C309.742 409.543 305.854 403.04 296.771 398.516C296.082 398.163 295.322 397.827 294.545 397.492L292.194 434.442C292.194 434.442 295.605 470.225 336.496 463.422C353.053 460.665 370.724 445.892 385.974 429.282C370.282 426.401 346.868 420.322 345.384 415.357Z" fill="white"/>
<mask id="mask3_214_1797" style="mask-type:luminance" maskUnits="userSpaceOnUse" x="292" y="384" width="94" height="81">
<path d="M345.382 415.357C343.438 408.889 355.755 384.238 355.755 384.238L316.879 386.182C316.879 386.182 314.935 403.04 312.337 406.292C309.74 409.543 305.852 403.04 296.769 398.516C296.08 398.163 295.32 397.827 294.543 397.492L292.192 434.442C292.192 434.442 295.603 470.225 336.494 463.422C353.051 460.665 370.722 445.892 385.972 429.282C370.281 426.401 346.866 420.322 345.382 415.357Z" fill="white"/>
</mask>
<g mask="url(#mask3_214_1797)">
<path d="M344.288 389.134C344.288 389.134 341.937 402.317 340.047 416.896C338.156 431.474 336.76 442.324 336.76 442.324L345.383 415.358L355.102 386.784C355.102 386.784 345.701 386.784 344.288 389.134Z" fill="#EF5D32"/>
<path opacity="0.5" d="M344.288 389.134C344.288 389.134 341.937 402.317 340.047 416.896C338.156 431.474 336.76 442.324 336.76 442.324L345.383 415.358L355.102 386.784C355.102 386.784 345.701 386.784 344.288 389.134Z" fill="white"/>
</g>
<path d="M345.384 415.357C343.44 408.889 355.757 384.238 355.757 384.238L316.881 386.182C316.881 386.182 314.937 403.04 312.339 406.292C309.742 409.543 305.854 403.04 296.771 398.516C296.082 398.163 295.322 397.827 294.545 397.492L292.194 434.442C292.194 434.442 295.605 470.225 336.496 463.422C353.053 460.665 370.724 445.892 385.974 429.282C370.282 426.401 346.868 420.322 345.384 415.357Z" stroke="#263238" stroke-linecap="round" stroke-linejoin="round"/>
<path d="M312.322 406.292C309.724 409.525 305.836 403.04 296.754 398.516C291.028 395.636 281.91 393.021 274.364 390.193C272.226 385.122 269.399 378.513 267.579 374.519C264.345 367.451 259.15 371.922 259.15 371.922C256.439 368.839 254.249 365.335 252.664 361.549C249.431 354.48 244.235 355.063 237.114 353.773C229.993 352.483 215.061 338.859 215.061 338.859C215.061 338.859 208.081 333.558 205.2 330.925C201.843 337.534 193.802 349.161 176.414 356.424C204.14 385.387 260.387 440.414 266.289 444.549C272.774 449.073 270.83 462.044 266.289 475.014C261.747 487.985 244.889 506.822 245.543 527.532C246.197 548.243 252.611 580.051 252.028 586.536C251.445 592.314 238.51 610.427 235.7 614.315L242.292 615.057H276.609C276.414 597.669 276.432 526.702 288.324 498.428C301.949 465.931 312.322 406.292 312.322 406.292Z" fill="#EF5D32"/>
<mask id="mask4_214_1797" style="mask-type:luminance" maskUnits="userSpaceOnUse" x="176" y="330" width="137" height="286">
<path d="M312.324 406.291C309.726 409.524 305.838 403.039 296.756 398.515C291.03 395.635 281.912 393.02 274.366 390.192C272.228 385.121 269.401 378.512 267.581 374.518C264.347 367.45 259.152 371.921 259.152 371.921C256.441 368.838 254.251 365.334 252.666 361.548C249.433 354.479 244.237 355.062 237.116 353.772C229.994 352.482 215.063 338.858 215.063 338.858C215.063 338.858 208.082 333.557 205.202 330.924C201.845 337.533 193.804 349.16 176.416 356.423C204.142 385.386 260.389 440.413 266.291 444.548C272.776 449.072 270.832 462.043 266.291 475.013C261.749 487.984 244.891 506.821 245.545 527.531C246.199 548.242 252.613 580.05 252.03 586.535C251.447 592.313 238.512 610.426 235.702 614.314L242.293 615.056H276.611C276.416 597.668 276.434 526.701 288.326 498.427C301.951 465.93 312.324 406.291 312.324 406.291Z" fill="white"/>
</mask>
<g mask="url(#mask4_214_1797)">
<path opacity="0.16" d="M296.754 398.515C291.029 395.635 281.91 393.02 274.365 390.192C272.227 385.121 269.399 378.512 267.579 374.518C264.346 367.45 259.15 371.921 259.15 371.921C256.44 368.838 254.249 365.334 252.665 361.548C249.431 354.479 244.236 355.062 237.114 353.772C229.993 352.482 215.061 338.858 215.061 338.858C215.061 338.858 208.081 333.557 205.201 330.924C203.763 333.73 202.053 336.388 200.094 338.858C211.686 348.666 224.48 359.056 228.95 361.124C237.786 365.206 239.853 361.795 246.621 365.895C253.389 369.994 260.935 383.566 260.935 383.566C260.935 383.566 265.035 372.645 268.445 380.155C271.856 387.665 280.037 400.601 280.037 400.601C280.037 400.601 290.94 406.732 293.662 406.732C295.8 406.732 306.279 412.175 310.732 414.525C311.721 409.348 312.269 406.238 312.269 406.238C309.725 409.524 305.837 403.039 296.754 398.515Z" fill="black"/>
</g>
<path d="M312.322 406.292C309.724 409.525 305.836 403.04 296.754 398.516C291.028 395.636 281.91 393.021 274.364 390.193C272.226 385.122 269.399 378.513 267.579 374.519C264.345 367.451 259.15 371.922 259.15 371.922C256.439 368.839 254.249 365.335 252.664 361.549C249.431 354.48 244.235 355.063 237.114 353.773C229.993 352.483 215.061 338.859 215.061 338.859C215.061 338.859 208.081 333.558 205.2 330.925C201.843 337.534 193.802 349.161 176.414 356.424C204.14 385.387 260.387 440.414 266.289 444.549C272.774 449.073 270.83 462.044 266.289 475.014C261.747 487.985 244.889 506.822 245.543 527.532C246.197 548.243 252.611 580.051 252.028 586.536C251.445 592.314 238.51 610.427 235.7 614.315L242.292 615.057H276.609C276.414 597.669 276.432 526.702 288.324 498.428C301.949 465.931 312.322 406.292 312.322 406.292Z" stroke="#263238" stroke-linecap="round" stroke-linejoin="round"/>
<path d="M312.781 404.03C312.781 404.03 304.723 401.556 299.758 405.903C294.792 410.25 287.388 432.551 283.023 456.743C280.333 470.826 282.189 485.399 288.324 498.358C288.324 498.358 298.521 471.622 301.613 458.598C304.705 445.575 312.781 404.03 312.781 404.03Z" fill="#EF5D32"/>
<mask id="mask5_214_1797" style="mask-type:luminance" maskUnits="userSpaceOnUse" x="281" y="403" width="32" height="96">
<path d="M312.78 404.031C312.78 404.031 304.722 401.557 299.757 405.904C294.791 410.251 287.387 432.552 283.022 456.744C280.332 470.827 282.188 485.4 288.323 498.359C288.323 498.359 298.52 471.623 301.612 458.599C304.704 445.576 312.78 404.031 312.78 404.031Z" fill="white"/>
</mask>
<g mask="url(#mask5_214_1797)">
<path opacity="0.16" d="M297.317 407.971C297.317 407.971 303.149 406.558 305.552 407.371C307.576 408.239 309.467 409.387 311.171 410.781L312.78 404.031C310.367 402.798 307.631 402.347 304.951 402.741C300.94 403.554 297.317 407.971 297.317 407.971Z" fill="black"/>
</g>
<path d="M312.781 404.03C312.781 404.03 304.723 401.556 299.758 405.903C294.792 410.25 287.388 432.551 283.023 456.743C280.333 470.826 282.189 485.399 288.324 498.358C288.324 498.358 298.521 471.622 301.613 458.598C304.705 445.575 312.781 404.03 312.781 404.03Z" stroke="#263238" stroke-linecap="round" stroke-linejoin="round"/>
<path d="M258.513 406.15L268.886 448.295L245.543 395.123" stroke="#263238" stroke-linecap="round" stroke-linejoin="round"/>
<path d="M326.847 615.056H402.444C402.444 615.056 381.592 588.55 381.592 579.485C381.592 570.419 410.219 454.268 411.509 445.839C412.799 437.41 407.621 431.578 397.249 430.925C386.876 430.271 347.328 421.842 345.384 415.356C345.384 415.356 330.47 467.875 325.292 503.535C320.839 534.123 325.451 597.597 326.847 615.056Z" fill="#EF5D32"/>
<mask id="mask6_214_1797" style="mask-type:luminance" maskUnits="userSpaceOnUse" x="323" y="415" width="89" height="201">
<path d="M326.847 615.056H402.444C402.444 615.056 381.592 588.55 381.592 579.485C381.592 570.419 410.219 454.268 411.509 445.839C412.799 437.41 407.621 431.578 397.249 430.925C386.876 430.271 347.328 421.842 345.384 415.356C345.384 415.356 330.47 467.875 325.292 503.535C320.839 534.123 325.451 597.597 326.847 615.056Z" fill="white"/>
</mask>
<g mask="url(#mask6_214_1797)">
<path opacity="0.16" d="M397.248 430.924C388.748 430.394 360.669 424.633 349.73 419.014L353.706 428.203C360.91 432.024 368.658 434.718 376.679 436.19C389.844 438.54 402.09 438.081 410.095 449.85L410.483 450.433C410.978 448.171 411.314 446.58 411.42 445.838C412.816 437.409 407.621 431.578 397.248 430.924Z" fill="black"/>
</g>
<path d="M326.847 615.056H402.444C402.444 615.056 381.592 588.55 381.592 579.485C381.592 570.419 410.219 454.268 411.509 445.839C412.799 437.41 407.621 431.578 397.249 430.925C386.876 430.271 347.328 421.842 345.384 415.356C345.384 415.356 330.47 467.875 325.292 503.535C320.839 534.123 325.451 597.597 326.847 615.056Z" stroke="#263238" stroke-linecap="round" stroke-linejoin="round"/>
<path d="M345.384 415.356C345.384 415.356 325.38 478.972 325.292 503.535C325.292 503.535 353.707 469.129 357.418 444.955C361.129 420.781 345.384 415.356 345.384 415.356Z" fill="#EF5D32"/>
<mask id="mask7_214_1797" style="mask-type:luminance" maskUnits="userSpaceOnUse" x="325" y="415" width="33" height="89">
<path d="M345.384 415.356C345.384 415.356 325.38 478.972 325.292 503.535C325.292 503.535 353.707 469.129 357.418 444.955C361.129 420.781 345.384 415.356 345.384 415.356Z" fill="white"/>
</mask>
<g mask="url(#mask7_214_1797)">
<path opacity="0.16" d="M341.938 423.485C344.943 423.384 347.928 424.017 350.635 425.329C353.341 426.64 355.687 428.591 357.47 431.013C357.47 431.013 353.547 419.474 345.383 415.356L341.938 423.485Z" fill="black"/>
</g>
<path d="M345.384 415.356C345.384 415.356 325.38 478.972 325.292 503.535C325.292 503.535 353.707 469.129 357.418 444.955C361.129 420.781 345.384 415.356 345.384 415.356Z" stroke="#263238" stroke-linecap="round" stroke-linejoin="round"/>
<path d="M558.937 603.093C558.937 603.093 573.587 603.694 583.182 605.072C589.581 605.94 596.023 606.453 602.479 606.61C602.479 606.61 597.177 595.901 591.523 592.879C585.868 589.857 575.619 584.45 567.031 585.652C558.443 586.853 546.161 595.512 547.186 598.269C548.211 601.026 552.788 602.263 558.937 603.093Z" fill="white"/>
<mask id="mask8_214_1797" style="mask-type:luminance" maskUnits="userSpaceOnUse" x="547" y="585" width="56" height="22">
<path d="M558.937 603.092C558.937 603.092 573.587 603.693 583.182 605.071C589.581 605.939 596.023 606.452 602.479 606.609C602.479 606.609 597.177 595.9 591.523 592.878C585.868 589.857 575.619 584.449 567.031 585.651C558.443 586.852 546.161 595.511 547.186 598.268C548.211 601.025 552.788 602.262 558.937 603.092Z" fill="white"/>
</mask>
<g mask="url(#mask8_214_1797)">
<path d="M558.937 603.092C558.937 603.092 573.587 603.693 583.182 605.071C589.581 605.939 596.023 606.452 602.479 606.609C602.479 606.609 597.177 595.9 591.523 592.878C585.868 589.857 575.619 584.449 567.031 585.651C558.443 586.852 546.161 595.511 547.186 598.268C548.211 601.025 552.788 602.262 558.937 603.092Z" fill="#EF5D32"/>
<path opacity="0.5" d="M558.937 603.092C558.937 603.092 573.587 603.693 583.182 605.071C589.581 605.939 596.023 606.452 602.479 606.609C602.479 606.609 597.177 595.9 591.523 592.878C585.868 589.857 575.619 584.449 567.031 585.651C558.443 586.852 546.161 595.511 547.186 598.268C548.211 601.025 552.788 602.262 558.937 603.092Z" fill="white"/>
</g>
<path d="M558.937 603.093C558.937 603.093 573.587 603.694 583.182 605.072C589.581 605.94 596.023 606.453 602.479 606.61C602.479 606.61 597.177 595.901 591.523 592.879C585.868 589.857 575.619 584.45 567.031 585.652C558.443 586.853 546.161 595.512 547.186 598.269C548.211 601.026 552.788 602.263 558.937 603.093Z" stroke="#263238" stroke-linecap="round" stroke-linejoin="round"/>
<path d="M583.271 598.712C583.271 598.712 594.88 592.686 597.778 592.774C600.676 592.863 619.938 605.886 618.984 607.971C618.336 608.938 617.4 609.677 616.309 610.083C615.218 610.489 614.027 610.542 612.905 610.233C610.767 609.226 597.796 603.713 597.796 603.713L589.314 605.71L583.271 598.712Z" fill="white"/>
<mask id="mask9_214_1797" style="mask-type:luminance" maskUnits="userSpaceOnUse" x="583" y="592" width="37" height="19">
<path d="M583.27 598.712C583.27 598.712 594.879 592.686 597.777 592.774C600.675 592.863 619.937 605.886 618.983 607.971C618.335 608.938 617.399 609.677 616.308 610.083C615.217 610.489 614.026 610.542 612.904 610.233C610.766 609.226 597.795 603.713 597.795 603.713L589.313 605.71L583.27 598.712Z" fill="white"/>
</mask>
<g mask="url(#mask9_214_1797)">
<path d="M583.27 598.712C583.27 598.712 594.879 592.686 597.777 592.774C600.675 592.863 619.937 605.886 618.983 607.971C618.028 610.057 613.469 611.753 612.904 610.233C612.338 608.714 597.795 603.713 597.795 603.713L589.313 605.71L583.27 598.712Z" fill="#EF5D32"/>
<path opacity="0.5" d="M583.27 598.712C583.27 598.712 594.879 592.686 597.777 592.774C600.675 592.863 619.937 605.886 618.983 607.971C618.028 610.057 613.469 611.753 612.904 610.233C612.338 608.714 597.795 603.713 597.795 603.713L589.313 605.71L583.27 598.712Z" fill="white"/>
</g>
<path d="M583.271 598.712C583.271 598.712 594.88 592.686 597.778 592.774C600.676 592.863 619.938 605.886 618.984 607.971C618.336 608.938 617.4 609.677 616.309 610.083C615.218 610.489 614.027 610.542 612.905 610.233C610.767 609.226 597.796 603.713 597.796 603.713L589.314 605.71L583.271 598.712Z" stroke="#263238" stroke-linecap="round" stroke-linejoin="round"/>
<path d="M574.983 588.798C574.983 588.798 590.463 588.304 593.538 589.859C596.613 591.414 610.502 615.234 608.417 616.966C606.332 618.698 600.571 618.185 600.748 616.259C600.924 614.333 587.954 601.575 587.954 601.575L577.864 599.366L574.983 588.798Z" fill="white"/>
<mask id="mask10_214_1797" style="mask-type:luminance" maskUnits="userSpaceOnUse" x="574" y="588" width="35" height="31">
<path d="M574.985 588.798C574.985 588.798 590.465 588.304 593.54 589.859C596.615 591.414 610.504 615.234 608.419 616.966C606.334 618.698 600.573 618.185 600.75 616.259C600.926 614.333 587.956 601.575 587.956 601.575L577.866 599.366L574.985 588.798Z" fill="white"/>
</mask>
<g mask="url(#mask10_214_1797)">
<path d="M574.985 588.798C574.985 588.798 590.465 588.304 593.54 589.859C596.615 591.414 610.504 615.234 608.419 616.966C606.334 618.698 600.573 618.185 600.75 616.259C600.926 614.333 587.956 601.575 587.956 601.575L577.866 599.366L574.985 588.798Z" fill="#EF5D32"/>
<path opacity="0.5" d="M574.985 588.798C574.985 588.798 590.465 588.304 593.54 589.859C596.615 591.414 610.504 615.234 608.419 616.966C606.334 618.698 600.573 618.185 600.75 616.259C600.926 614.333 587.956 601.575 587.956 601.575L577.866 599.366L574.985 588.798Z" fill="white"/>
</g>
<path d="M574.983 588.798C574.983 588.798 590.463 588.304 593.538 589.859C596.613 591.414 610.502 615.234 608.417 616.966C606.332 618.698 600.571 618.185 600.748 616.259C600.924 614.333 587.954 601.575 587.954 601.575L577.864 599.366L574.983 588.798Z" stroke="#263238" stroke-linecap="round" stroke-linejoin="round"/>
<path d="M565.812 585.599C565.812 585.599 581.486 585.087 584.596 586.677C587.706 588.268 601.772 612.353 599.651 614.12C597.531 615.887 591.735 615.339 591.912 613.396C592.088 611.452 578.959 598.534 578.959 598.534L568.745 596.29L565.812 585.599Z" fill="white"/>
<mask id="mask11_214_1797" style="mask-type:luminance" maskUnits="userSpaceOnUse" x="565" y="585" width="35" height="31">
<path d="M565.811 585.598C565.811 585.598 581.485 585.086 584.595 586.676C587.705 588.267 601.771 612.352 599.65 614.119C597.53 615.886 591.734 615.338 591.911 613.395C592.087 611.451 578.958 598.533 578.958 598.533L568.744 596.289L565.811 585.598Z" fill="white"/>
</mask>
<g mask="url(#mask11_214_1797)">
<path d="M565.811 585.598C565.811 585.598 581.485 585.086 584.595 586.676C587.705 588.267 601.771 612.352 599.65 614.119C597.53 615.886 591.734 615.338 591.911 613.395C592.087 611.451 578.958 598.533 578.958 598.533L568.744 596.289L565.811 585.598Z" fill="#EF5D32"/>
<path opacity="0.5" d="M565.811 585.598C565.811 585.598 581.485 585.086 584.595 586.676C587.705 588.267 601.771 612.352 599.65 614.119C597.53 615.886 591.734 615.338 591.911 613.395C592.087 611.451 578.958 598.533 578.958 598.533L568.744 596.289L565.811 585.598Z" fill="white"/>
</g>
<path d="M565.812 585.599C565.812 585.599 581.486 585.087 584.596 586.677C587.706 588.268 601.772 612.353 599.651 614.12C597.531 615.887 591.735 615.339 591.912 613.396C592.088 611.452 578.959 598.534 578.959 598.534L568.745 596.29L565.812 585.599Z" stroke="#263238" stroke-linecap="round" stroke-linejoin="round"/>
<path d="M387.6 495.796C398.945 513.272 421.723 557.556 428.367 562.539C438.74 570.314 508.081 589.187 514.761 594.347C521.44 599.507 520.981 604.684 527.307 606.575C533.633 608.466 557.348 613.891 566.395 614.739C575.443 615.587 571.396 609.986 571.396 609.986L555.969 599.383L569.417 596.061C569.417 596.061 582.9 612.283 585.427 613.166C587.954 614.05 592.407 613.166 592.124 611.17C591.63 607.971 577.245 581.8 572.138 580.687C567.032 579.574 536.037 583.868 536.037 583.868C536.037 583.868 471.025 540.026 469.859 538.471C469.859 538.471 465.971 527.444 462.79 522.903C459.609 518.361 457.595 519.669 457.595 519.669C457.595 519.669 458.903 513.82 456.959 511.876L446.586 501.503L446.215 501.998C444.448 498.464 442.681 494.435 440.737 489.84C435.312 477.064 416.104 441.21 412.87 436.032C410.449 432.162 390.162 429.388 379.878 428.222" fill="#EF5D32"/>
<mask id="mask12_214_1797" style="mask-type:luminance" maskUnits="userSpaceOnUse" x="379" y="428" width="214" height="187">
<path d="M387.6 495.796C398.945 513.272 421.723 557.556 428.367 562.539C438.74 570.314 508.081 589.187 514.761 594.347C521.44 599.507 520.981 604.684 527.307 606.575C533.633 608.466 557.348 613.891 566.395 614.739C575.443 615.587 571.396 609.986 571.396 609.986L555.969 599.383L569.417 596.061C569.417 596.061 582.9 612.283 585.427 613.166C587.954 614.05 592.407 613.166 592.124 611.17C591.63 607.971 577.245 581.8 572.138 580.687C567.032 579.574 536.037 583.868 536.037 583.868C536.037 583.868 471.025 540.026 469.859 538.471C469.859 538.471 465.971 527.444 462.79 522.903C459.609 518.361 457.595 519.669 457.595 519.669C457.595 519.669 458.903 513.82 456.959 511.876L446.586 501.503L446.215 501.998C444.448 498.464 442.681 494.435 440.737 489.84C435.312 477.064 416.104 441.21 412.87 436.032C410.449 432.162 390.162 429.388 379.878 428.222" fill="white"/>
</mask>
<g mask="url(#mask12_214_1797)">
<path opacity="0.16" d="M432.767 496.909C441.25 504.437 438.422 504.437 436.531 511.046C434.641 517.655 437.945 508.696 445.95 509.173C453.955 509.65 451.605 519.988 450.651 521.878C449.696 523.769 460.546 526.119 458.656 530.343C456.765 534.566 445.95 540.698 439.836 546.83C433.722 552.962 455.828 536.934 463.356 536.475C465.653 536.316 467.544 536.616 469.134 536.581C467.466 531.852 465.323 527.305 462.738 523.009C459.486 518.468 457.542 519.776 457.542 519.776C457.542 519.776 458.85 513.926 456.906 511.983L446.533 501.61L446.162 502.105C444.395 498.57 442.628 494.541 440.684 489.947C435.259 477.171 416.051 441.316 412.817 436.139C410.396 432.269 390.11 429.494 379.825 428.328L380.762 436.51L380.991 436.686C380.991 436.686 393.697 439.037 397.938 439.514C402.179 439.991 407.357 443.737 406.879 446.582C406.402 449.427 394.174 462.115 397.938 463.069C401.702 464.023 405.943 453.651 410.184 455.064C414.425 456.478 424.232 489.381 432.767 496.909Z" fill="black"/>
</g>
<path d="M387.6 495.796C398.945 513.272 421.723 557.556 428.367 562.539C438.74 570.314 508.081 589.187 514.761 594.347C521.44 599.507 520.981 604.684 527.307 606.575C533.633 608.466 557.348 613.891 566.395 614.739C575.443 615.587 571.396 609.986 571.396 609.986L555.969 599.383L569.417 596.061C569.417 596.061 582.9 612.283 585.427 613.166C587.954 614.05 592.407 613.166 592.124 611.17C591.63 607.971 577.245 581.8 572.138 580.687C567.032 579.574 536.037 583.868 536.037 583.868C536.037 583.868 471.025 540.026 469.859 538.471C469.859 538.471 465.971 527.444 462.79 522.903C459.609 518.361 457.595 519.669 457.595 519.669C457.595 519.669 458.903 513.82 456.959 511.876L446.586 501.503L446.215 501.998C444.448 498.464 442.681 494.435 440.737 489.84C435.312 477.064 416.104 441.21 412.87 436.032C410.449 432.162 390.162 429.388 379.878 428.222" stroke="#263238" stroke-linecap="round" stroke-linejoin="round"/>
<path d="M387.777 471.815C387.3 473.406 386.893 474.996 386.575 476.622" stroke="#263238" stroke-linecap="round" stroke-linejoin="round"/>
<path d="M404.953 442.57C399.4 448.9 394.717 455.942 391.028 463.51" stroke="#263238" stroke-linecap="round" stroke-linejoin="round"/>
<path d="M430.912 542.906C435.683 535.838 443.282 526.879 451.658 524.316" stroke="#263238" stroke-linecap="round" stroke-linejoin="round"/>
<path d="M425.628 551.6C425.628 551.6 426.476 549.939 427.996 547.43" stroke="#263238" stroke-linecap="round" stroke-linejoin="round"/>
<path d="M425.628 540.432C425.628 540.432 434.304 518.733 442.981 513.148C451.657 507.564 446.692 518.732 446.692 518.732" stroke="#263238" stroke-linecap="round" stroke-linejoin="round"/>
<path d="M514.761 594.364C521.458 599.542 520.981 604.702 527.307 606.592C533.633 608.483 557.348 613.908 566.395 614.756C575.443 615.605 571.396 610.003 571.396 610.003L555.969 599.4L569.417 596.078C569.417 596.078 582.9 612.3 585.427 613.184C587.954 614.067 592.76 614.385 592.124 611.187C590.887 605.002 577.245 581.818 572.138 580.704C567.031 579.591 536.037 583.885 536.037 583.885C536.037 583.885 476.821 543.242 470.336 538.842C445.19 541.263 433.227 554.428 428.19 562.327L428.367 562.468C438.74 570.314 508.081 589.186 514.761 594.364Z" fill="white"/>
<mask id="mask13_214_1797" style="mask-type:luminance" maskUnits="userSpaceOnUse" x="428" y="538" width="165" height="77">
<path d="M514.76 594.365C521.457 599.543 520.98 604.703 527.306 606.593C533.632 608.484 557.347 613.909 566.394 614.757C575.442 615.606 571.395 610.004 571.395 610.004L555.968 599.401L569.416 596.079C569.416 596.079 582.899 612.301 585.426 613.185C587.953 614.068 592.759 614.386 592.123 611.188C590.886 605.003 577.244 581.819 572.137 580.705C567.031 579.592 536.036 583.886 536.036 583.886C536.036 583.886 476.82 543.243 470.335 538.843C445.189 541.264 433.226 554.429 428.189 562.328L428.366 562.469C438.739 570.315 508.08 589.187 514.76 594.365Z" fill="white"/>
</mask>
<g mask="url(#mask13_214_1797)">
<path d="M592.106 611.258C588.89 603.395 577.227 581.889 572.12 580.776C567.013 579.662 536.019 583.956 536.019 583.956C536.019 583.956 476.803 543.313 470.318 538.913C463.718 539.487 457.242 541.054 451.109 543.561C460.457 548.862 522.765 584.204 530.629 585.777C538.97 587.544 566.801 582.967 571.696 586.254C574.806 588.339 584.066 603.023 590.321 613.449C592.106 613.184 592.76 612.849 592.106 611.258Z" fill="#EF5D32"/>
<path opacity="0.5" d="M592.106 611.258C587.088 600.002 577.227 581.889 572.12 580.776C567.013 579.662 536.019 583.956 536.019 583.956C536.019 583.956 476.803 543.313 470.318 538.913C463.718 539.487 457.242 541.054 451.109 543.561C460.457 548.862 522.765 584.204 530.629 585.777C538.97 587.544 566.801 582.967 571.696 586.254C574.806 588.339 584.066 603.023 590.321 613.449C592.106 613.184 592.813 612.831 592.106 611.258Z" fill="white"/>
</g>
<path d="M514.761 594.364C521.458 599.542 520.981 604.702 527.307 606.592C533.633 608.483 557.348 613.908 566.395 614.756C575.443 615.605 571.396 610.003 571.396 610.003L555.969 599.4L569.417 596.078C569.417 596.078 582.9 612.3 585.427 613.184C587.954 614.067 592.76 614.385 592.124 611.187C590.887 605.002 577.245 581.818 572.138 580.704C567.031 579.591 536.037 583.885 536.037 583.885C536.037 583.885 476.821 543.242 470.336 538.842C445.19 541.263 433.227 554.428 428.19 562.327L428.367 562.468C438.74 570.314 508.081 589.186 514.761 594.364Z" stroke="#263238" stroke-linecap="round" stroke-linejoin="round"/>
<path d="M358.584 285.793L305.359 308.005C304.714 317.36 302.397 326.523 298.52 335.06C292.229 348.366 295.905 373.547 301.948 387.136C307.992 400.725 334.622 395.406 344.358 393.71C350.962 392.454 357.43 390.566 363.673 388.073C366.515 389.168 369.59 389.522 372.607 389.102C375.624 388.682 378.485 387.5 380.92 385.669C380.92 385.669 352.434 305.708 358.584 285.793Z" fill="white"/>
<mask id="mask14_214_1797" style="mask-type:luminance" maskUnits="userSpaceOnUse" x="295" y="285" width="86" height="112">
<path d="M358.584 285.792L305.359 308.004C304.714 317.359 302.397 326.522 298.52 335.059C292.229 348.365 295.905 373.546 301.948 387.135C307.992 400.724 334.622 395.405 344.358 393.709C350.962 392.453 357.43 390.565 363.673 388.072C366.515 389.167 369.59 389.521 372.607 389.101C375.624 388.681 378.485 387.499 380.92 385.668C380.92 385.668 352.434 305.707 358.584 285.792Z" fill="white"/>
</mask>
<g mask="url(#mask14_214_1797)">
<path d="M358.584 285.792L305.359 308.004C304.714 317.359 302.397 326.522 298.52 335.059C292.229 348.365 295.905 373.546 301.948 387.135C302.96 389.32 304.587 391.163 306.631 392.436V391.412C306.631 391.412 296.753 366.937 298.626 352.818C300.499 338.699 308.522 331.613 309.458 322.689C310.395 313.765 309.918 309.524 327.818 302.933C345.719 296.342 353.229 290.227 355.102 296.801C356.976 303.375 364.521 346.704 369.699 357.059C374.876 367.414 374.399 378.264 366.412 382.947C358.339 387.793 349.689 391.605 340.665 394.292L344.429 393.638C351.033 392.382 357.501 390.494 363.743 388.001C366.586 389.097 369.661 389.451 372.678 389.03C375.695 388.61 378.556 387.429 380.99 385.598C380.99 385.598 352.434 305.707 358.584 285.792Z" fill="#EF5D32"/>
<path opacity="0.5" d="M358.584 285.792L305.359 308.004C304.714 317.359 302.397 326.522 298.52 335.059C292.229 348.365 295.905 373.546 301.948 387.135C302.96 389.32 304.587 391.163 306.631 392.436V391.412C306.631 391.412 296.753 366.937 298.626 352.818C300.499 338.699 308.522 331.613 309.458 322.689C310.395 313.765 309.918 309.524 327.818 302.933C345.719 296.342 353.229 290.227 355.102 296.801C356.976 303.375 364.521 346.704 369.699 357.059C374.876 367.414 374.399 378.264 366.412 382.947C358.339 387.793 349.689 391.605 340.665 394.292L344.429 393.638C351.033 392.382 357.501 390.494 363.743 388.001C366.586 389.097 369.661 389.451 372.678 389.03C375.695 388.61 378.556 387.429 380.99 385.598C380.99 385.598 352.434 305.707 358.584 285.792Z" fill="white"/>
</g>
<path d="M358.584 285.793L305.359 308.005C304.714 317.36 302.397 326.523 298.52 335.06C292.229 348.366 295.905 373.547 301.948 387.136C307.992 400.725 334.622 395.406 344.358 393.71C350.962 392.454 357.43 390.566 363.673 388.073C366.515 389.168 369.59 389.522 372.607 389.102C375.624 388.682 378.485 387.5 380.92 385.669C380.92 385.669 352.434 305.708 358.584 285.793Z" stroke="#263238" stroke-linecap="round" stroke-linejoin="round"/>
<path d="M331.689 320.623C331.834 323.752 331.445 326.883 330.541 329.883C329.127 333.417 315.785 347.306 316.192 348.808C316.598 350.31 317.8 355.135 320.168 355.594" stroke="#263238" stroke-linecap="round" stroke-linejoin="round"/>
<path d="M346.479 333.045C348.335 329.334 354.431 332.957 354.343 341.315" stroke="#263238" stroke-linecap="round" stroke-linejoin="round"/>
<path d="M316.262 322.124C316.262 322.124 321.457 319.845 326.104 328.256" stroke="#263238" stroke-linecap="round" stroke-linejoin="round"/>
<path d="M339.094 345.292C345.097 345.594 350.805 347.989 355.227 352.06" stroke="#263238" stroke-width="0.5" stroke-linecap="round" stroke-linejoin="round"/>
<path d="M309.989 334.247C313.093 334.661 316.125 335.5 319.001 336.739" stroke="#263238" stroke-width="0.5" stroke-linecap="round" stroke-linejoin="round"/>
<path d="M331.106 312.777C329.734 312.052 328.212 311.655 326.661 311.618C325.109 311.581 323.57 311.905 322.165 312.565C317.411 314.845 314.496 317.354 314.814 314.438C315.132 311.522 320.716 308.306 322.395 307.882C324.073 307.458 331.583 306.292 331.106 312.777Z" fill="#263238"/>
<path d="M344.43 306.186C349.383 310.194 353.319 315.316 355.916 321.135C359.45 329.971 362.242 320.323 359.45 314.544C356.658 308.766 348.582 302.616 344.43 306.186Z" fill="#263238"/>
<path d="M381.698 400.779C381.698 404.896 379.365 408.236 376.503 408.236C373.64 408.236 371.325 404.896 371.325 400.779C371.325 396.661 373.64 386.183 376.503 386.183C379.365 386.183 381.698 396.661 381.698 400.779Z" fill="#EF5D32" stroke="#263238" stroke-linecap="round" stroke-linejoin="round"/>
<path d="M346.939 331.438C346.736 331.978 346.576 332.533 346.462 333.099C345.949 335.714 345.437 341.174 346.462 341.404C347.487 341.634 349.996 336.527 350.438 333.911C350.537 333.399 350.596 332.879 350.615 332.356C349.408 331.978 348.181 331.671 346.939 331.438Z" fill="#263238"/>
<path d="M316.792 321.612C316.635 322.074 316.511 322.546 316.421 323.026C315.891 325.641 315.909 331.384 317.022 331.596C318.135 331.808 319.955 326.436 320.468 323.821C320.596 323.186 320.667 322.542 320.68 321.895C319.415 321.547 318.094 321.451 316.792 321.612Z" fill="#263238"/>
<path d="M346.479 333.133L348.247 329.847C351.048 330.392 353.586 331.861 355.456 334.017" stroke="#263238" stroke-width="0.75" stroke-linecap="round" stroke-linejoin="round"/>
<path d="M316.793 321.613L318.56 319.545C318.56 319.545 319.32 319.174 323.49 321.065" stroke="#263238" stroke-width="0.75" stroke-linecap="round" stroke-linejoin="round"/>
<path d="M310.095 369.537C310.095 369.537 313.063 364.076 317.039 364.076C321.015 364.076 323.984 373 323.984 373" stroke="#263238" stroke-linecap="round" stroke-linejoin="round"/>
<path d="M182.14 605.02C178.297 604.829 174.523 603.931 171.007 602.37C170.517 602.188 170.068 601.909 169.689 601.549C169.311 601.189 169.009 600.756 168.803 600.275C168.597 599.795 168.49 599.278 168.491 598.755C168.491 598.232 168.598 597.715 168.804 597.235C169.011 596.754 169.313 596.321 169.692 595.962C170.071 595.602 170.52 595.323 171.01 595.142C171.5 594.961 172.023 594.882 172.545 594.909C173.067 594.937 173.577 595.07 174.046 595.301C177.581 596.803 182.157 597.74 183.377 597.21C185.621 594.7 189.067 579.539 184.614 572.223C183.606 570.597 182.67 570.297 182.051 570.226C179.524 569.873 175.778 572.47 174.453 573.76C174.084 574.108 173.65 574.38 173.176 574.561C172.702 574.741 172.197 574.826 171.69 574.812C171.183 574.797 170.683 574.682 170.221 574.475C169.758 574.267 169.341 573.97 168.992 573.601C168.644 573.232 168.372 572.798 168.192 572.324C168.012 571.85 167.926 571.345 167.941 570.838C167.956 570.331 168.07 569.832 168.278 569.369C168.486 568.906 168.782 568.489 169.151 568.141C169.841 567.469 176.22 561.726 183.023 562.645C184.711 562.892 186.318 563.524 187.722 564.492C189.126 565.46 190.287 566.739 191.117 568.229C197.672 578.92 193.184 599.26 188.148 603.289C186.398 604.527 184.28 605.137 182.14 605.02Z" fill="white"/>
<mask id="mask15_214_1797" style="mask-type:luminance" maskUnits="userSpaceOnUse" x="167" y="562" width="28" height="44">
<path d="M182.14 605.018C178.297 604.827 174.523 603.929 171.007 602.368C170.517 602.186 170.068 601.907 169.689 601.547C169.311 601.187 169.009 600.754 168.803 600.273C168.597 599.793 168.49 599.276 168.491 598.753C168.491 598.23 168.598 597.713 168.804 597.233C169.011 596.753 169.313 596.319 169.692 595.96C170.071 595.6 170.52 595.321 171.01 595.14C171.5 594.959 172.023 594.88 172.545 594.907C173.067 594.935 173.577 595.068 174.046 595.299C177.581 596.801 182.157 597.738 183.377 597.208C185.621 594.698 189.067 579.537 184.614 572.221C183.606 570.595 182.67 570.295 182.051 570.224C179.524 569.871 175.778 572.468 174.453 573.758C174.084 574.106 173.65 574.378 173.176 574.559C172.702 574.739 172.197 574.824 171.69 574.81C171.183 574.795 170.683 574.68 170.221 574.473C169.758 574.265 169.341 573.968 168.992 573.599C168.644 573.23 168.372 572.796 168.192 572.322C168.012 571.848 167.926 571.343 167.941 570.836C167.956 570.329 168.07 569.83 168.278 569.367C168.486 568.904 168.782 568.487 169.151 568.139C169.841 567.467 176.22 561.724 183.023 562.643C184.711 562.89 186.318 563.522 187.722 564.49C189.126 565.458 190.287 566.737 191.117 568.227C197.672 578.918 193.184 599.258 188.148 603.287C186.398 604.525 184.28 605.135 182.14 605.018Z" fill="white"/>
</mask>
<g mask="url(#mask15_214_1797)">
<path d="M187.317 571.055C186.854 569.957 186.128 568.99 185.204 568.238C184.279 567.487 183.185 566.973 182.016 566.743C177.598 566.036 173.445 570.472 172.986 570.966C172.563 571.475 172.302 572.098 172.236 572.756C172.17 573.414 172.302 574.077 172.615 574.66C173.31 574.52 173.952 574.19 174.47 573.705C175.796 572.469 179.542 569.871 182.069 570.171C182.687 570.171 183.624 570.542 184.631 572.168C189.084 579.413 185.638 594.646 183.394 597.155C182.175 597.685 177.616 596.748 174.064 595.246C173.627 595.063 173.159 594.961 172.685 594.946C172.718 595.43 172.87 595.899 173.129 596.309C173.389 596.72 173.746 597.059 174.17 597.296C176.404 598.49 178.869 599.189 181.397 599.346C182.84 599.415 184.253 598.921 185.338 597.968C188.66 594.911 191.593 579.272 187.317 571.055Z" fill="#EF5D32"/>
<path opacity="0.5" d="M187.317 571.055C186.854 569.957 186.128 568.99 185.204 568.238C184.279 567.487 183.185 566.973 182.016 566.743C177.598 566.036 173.445 570.472 172.986 570.966C172.563 571.475 172.302 572.098 172.236 572.756C172.17 573.414 172.302 574.077 172.615 574.66C173.31 574.52 173.952 574.19 174.47 573.705C175.796 572.469 179.542 569.871 182.069 570.171C182.687 570.171 183.624 570.542 184.631 572.168C189.084 579.413 185.638 594.646 183.394 597.155C182.175 597.685 177.616 596.748 174.064 595.246C173.627 595.063 173.159 594.961 172.685 594.946C172.718 595.43 172.87 595.899 173.129 596.309C173.389 596.72 173.746 597.059 174.17 597.296C176.404 598.49 178.869 599.189 181.397 599.346C182.84 599.415 184.253 598.921 185.338 597.968C188.66 594.911 191.593 579.272 187.317 571.055Z" fill="white"/>
</g>
<path d="M182.14 605.02C178.297 604.829 174.523 603.931 171.007 602.37C170.517 602.188 170.068 601.909 169.689 601.549C169.311 601.189 169.009 600.756 168.803 600.275C168.597 599.795 168.49 599.278 168.491 598.755C168.491 598.232 168.598 597.715 168.804 597.235C169.011 596.754 169.313 596.321 169.692 595.962C170.071 595.602 170.52 595.323 171.01 595.142C171.5 594.961 172.023 594.882 172.545 594.909C173.067 594.937 173.577 595.07 174.046 595.301C177.581 596.803 182.157 597.74 183.377 597.21C185.621 594.7 189.067 579.539 184.614 572.223C183.606 570.597 182.67 570.297 182.051 570.226C179.524 569.873 175.778 572.47 174.453 573.76C174.084 574.108 173.65 574.38 173.176 574.561C172.702 574.741 172.197 574.826 171.69 574.812C171.183 574.797 170.683 574.682 170.221 574.475C169.758 574.267 169.341 573.97 168.992 573.601C168.644 573.232 168.372 572.798 168.192 572.324C168.012 571.85 167.926 571.345 167.941 570.838C167.956 570.331 168.07 569.832 168.278 569.369C168.486 568.906 168.782 568.489 169.151 568.141C169.841 567.469 176.22 561.726 183.023 562.645C184.711 562.892 186.318 563.524 187.722 564.492C189.126 565.46 190.287 566.739 191.117 568.229C197.672 578.92 193.184 599.26 188.148 603.289C186.398 604.527 184.28 605.137 182.14 605.02Z" stroke="#263238" stroke-linecap="round" stroke-linejoin="round"/>
<path d="M175.389 559.429H132.891V615.835H175.389V559.429Z" fill="white"/>
<mask id="mask16_214_1797" style="mask-type:luminance" maskUnits="userSpaceOnUse" x="132" y="559" width="44" height="57">
<path d="M175.389 559.428H132.891V615.834H175.389V559.428Z" fill="white"/>
</mask>
<g mask="url(#mask16_214_1797)">
<path d="M150.297 559.428H132.891V615.834H150.297V559.428Z" fill="#EF5D32"/>
<path opacity="0.5" d="M150.297 559.428H132.891V615.834H150.297V559.428Z" fill="white"/>
</g>
<path d="M175.389 559.429H132.891V615.835H175.389V559.429Z" stroke="#263238" stroke-linecap="round" stroke-linejoin="round"/>
<path d="M408.93 615.056H227.378L221.458 515.251C221.295 514.283 221.343 513.291 221.6 512.344C221.856 511.397 222.316 510.516 222.946 509.764C223.576 509.011 224.361 508.404 225.249 507.985C226.136 507.565 227.103 507.343 228.085 507.334H408.152C409.14 507.333 410.115 507.548 411.011 507.963C411.907 508.378 412.702 508.983 413.339 509.737C413.977 510.491 414.443 511.375 414.704 512.327C414.964 513.279 415.014 514.277 414.85 515.251L408.93 615.056Z" fill="#263238" stroke="#263238" stroke-linecap="round" stroke-linejoin="round"/>
<path d="M236.32 509.719H406.845C407.809 509.709 408.763 509.91 409.64 510.307C410.518 510.705 411.298 511.289 411.926 512.02C412.554 512.751 413.014 513.61 413.275 514.537C413.536 515.464 413.591 516.437 413.437 517.388" stroke="white" stroke-linecap="round" stroke-linejoin="round"/>
<path d="M222.783 515.816C222.925 514.146 223.692 512.591 224.93 511.461C226.168 510.331 227.787 509.709 229.463 509.72" stroke="white" stroke-linecap="round" stroke-linejoin="round"/>
<path d="M409.69 605.337H226.618V615.056H409.69V605.337Z" fill="white" stroke="#263238" stroke-linecap="round" stroke-linejoin="round"/>
<path d="M317.5 569.359C324.663 569.359 330.47 565.878 330.47 561.584C330.47 557.29 324.663 553.809 317.5 553.809C310.336 553.809 304.529 557.29 304.529 561.584C304.529 565.878 310.336 569.359 317.5 569.359Z" fill="white" stroke="#263238" stroke-linecap="round" stroke-linejoin="round"/>
<path d="M685.815 613.908H3.96191V630.466H685.815V613.908Z" fill="#263238"/>
<path d="M509.019 0H180.992C169.935 0 160.971 8.96382 160.971 20.0212V208.235C160.971 219.292 169.935 228.256 180.992 228.256H509.019C520.076 228.256 529.04 219.292 529.04 208.235V20.0212C529.04 8.96382 520.076 0 509.019 0Z" fill="#EF5D32"/>
<path d="M353.661 131.172C383.416 126.39 403.661 98.392 398.879 68.6367C394.097 38.8814 366.099 18.6366 336.344 23.4186C306.588 28.2006 286.343 56.1986 291.125 85.9538C295.907 115.709 323.905 135.954 353.661 131.172Z" fill="#263238"/>
<path d="M344.59 87.3829L326.406 110.726C325.788 111.698 324.938 112.501 323.932 113.062C322.926 113.624 321.797 113.926 320.645 113.942C319.066 113.964 317.541 113.361 316.404 112.264C315.826 111.734 315.369 111.085 315.064 110.362C314.759 109.64 314.614 108.86 314.637 108.076C314.694 106.32 315.314 104.629 316.404 103.251L337.132 77.6109L317.694 51.9526C316.791 50.7485 316.296 49.2874 316.281 47.7822C316.276 46.8845 316.457 45.9956 316.813 45.1714C317.169 44.3473 317.692 43.6057 318.348 42.9934C318.965 42.3497 319.705 41.8377 320.525 41.4884C321.346 41.1391 322.228 40.9597 323.119 40.9612C324.261 40.9797 325.38 41.2837 326.373 41.8455C327.367 42.4073 328.205 43.2089 328.809 44.1774L346.374 67.3087L364.045 44.5661C364.677 43.5051 365.561 42.6162 366.618 41.9782C367.675 41.3401 368.873 40.9727 370.106 40.9082C370.872 40.9063 371.629 41.0623 372.332 41.3663C373.034 41.6704 373.666 42.116 374.188 42.6753C374.745 43.1996 375.189 43.8321 375.493 44.534C375.797 45.2359 375.954 45.9925 375.956 46.7573C375.937 48.126 375.464 49.4498 374.613 50.5212L353.814 77.1338L373.906 103.64C374.856 104.825 375.384 106.292 375.408 107.811C375.414 108.689 375.228 109.557 374.865 110.357C374.502 111.156 373.97 111.867 373.305 112.44C372.008 113.687 370.28 114.384 368.481 114.384C367.334 114.37 366.208 114.068 365.208 113.506C364.208 112.944 363.364 112.14 362.755 111.168L344.59 87.3829Z" fill="white"/>
<path d="M448.973 188.726H240.967C236.749 188.726 232.704 187.05 229.722 184.068C226.739 181.085 225.063 177.04 225.063 172.822C225.063 168.604 226.739 164.559 229.722 161.576C232.704 158.594 236.749 156.918 240.967 156.918H448.973C453.191 156.918 457.236 158.594 460.218 161.576C463.201 164.559 464.877 168.604 464.877 172.822C464.877 177.04 463.201 181.085 460.218 184.068C457.236 187.05 453.191 188.726 448.973 188.726Z" fill="white"/>
<path d="M269.471 177.947C269.332 177.947 269.195 177.919 269.067 177.864C268.94 177.81 268.824 177.73 268.729 177.629C268.624 177.525 268.542 177.401 268.487 177.264C268.433 177.128 268.407 176.981 268.411 176.834C268.41 176.585 268.478 176.341 268.605 176.127L270.195 173.653H266.944C266.794 173.661 266.643 173.636 266.503 173.582C266.363 173.527 266.236 173.443 266.131 173.335C265.949 173.124 265.85 172.854 265.85 172.575C265.85 172.296 265.949 172.027 266.131 171.815C266.236 171.708 266.363 171.624 266.503 171.569C266.643 171.514 266.794 171.49 266.944 171.497L270.142 171.586L268.729 169.288C268.587 169.053 268.508 168.785 268.499 168.511C268.495 168.364 268.521 168.217 268.576 168.08C268.63 167.944 268.713 167.819 268.817 167.716C268.916 167.615 269.034 167.534 269.165 167.48C269.295 167.425 269.435 167.397 269.577 167.398C269.775 167.395 269.969 167.45 270.136 167.557C270.302 167.664 270.434 167.817 270.514 167.998L272.069 170.773L273.553 168.122C273.646 167.916 273.795 167.739 273.982 167.611C274.169 167.484 274.387 167.41 274.613 167.398C274.752 167.398 274.889 167.426 275.017 167.48C275.145 167.535 275.26 167.615 275.355 167.716C275.459 167.813 275.541 167.931 275.596 168.062C275.65 168.193 275.677 168.334 275.673 168.476C275.671 168.726 275.598 168.972 275.461 169.182L273.906 171.674L277.14 171.586C277.291 171.577 277.441 171.601 277.581 171.655C277.722 171.71 277.849 171.795 277.953 171.904C278.135 172.115 278.235 172.385 278.235 172.664C278.235 172.942 278.135 173.212 277.953 173.423C277.849 173.532 277.722 173.617 277.581 173.672C277.441 173.727 277.291 173.75 277.14 173.741H273.871L275.32 176.003C275.483 176.276 275.575 176.587 275.585 176.905C275.59 177.048 275.566 177.19 275.515 177.324C275.463 177.458 275.385 177.58 275.285 177.682C275.192 177.781 275.08 177.861 274.955 177.915C274.83 177.97 274.696 177.999 274.56 178C274.341 177.995 274.129 177.927 273.947 177.805C273.766 177.683 273.623 177.512 273.535 177.311L272.069 174.713L270.602 177.311C270.496 177.516 270.332 177.685 270.131 177.798C269.93 177.911 269.701 177.963 269.471 177.947Z" fill="black"/>
<path d="M285.693 177.947C285.554 177.947 285.416 177.918 285.289 177.864C285.161 177.809 285.046 177.729 284.95 177.629C284.846 177.525 284.764 177.401 284.709 177.264C284.654 177.127 284.628 176.981 284.632 176.833C284.632 176.585 284.699 176.34 284.827 176.127L286.417 173.653H283.166C283.015 173.66 282.865 173.636 282.725 173.581C282.585 173.526 282.458 173.442 282.353 173.335C282.171 173.123 282.071 172.853 282.071 172.575C282.071 172.296 282.171 172.026 282.353 171.815C282.458 171.707 282.585 171.623 282.725 171.568C282.865 171.513 283.015 171.489 283.166 171.497L286.364 171.585L284.862 169.2C284.72 168.964 284.641 168.697 284.632 168.422C284.628 168.275 284.654 168.128 284.709 167.991C284.764 167.855 284.846 167.731 284.95 167.627C285.049 167.526 285.168 167.446 285.298 167.391C285.429 167.336 285.569 167.308 285.71 167.309C285.908 167.306 286.102 167.361 286.269 167.468C286.436 167.575 286.567 167.728 286.647 167.91L288.202 170.684L289.686 168.033C289.78 167.827 289.928 167.65 290.115 167.523C290.302 167.395 290.52 167.321 290.747 167.309C290.885 167.309 291.023 167.337 291.15 167.392C291.278 167.446 291.393 167.526 291.489 167.627C291.592 167.724 291.674 167.842 291.729 167.973C291.784 168.104 291.81 168.245 291.807 168.387C291.804 168.638 291.731 168.883 291.595 169.093L290.04 171.585L293.273 171.497C293.424 171.488 293.574 171.512 293.715 171.567C293.855 171.622 293.982 171.706 294.086 171.815C294.268 172.026 294.368 172.296 294.368 172.575C294.368 172.853 294.268 173.123 294.086 173.335C293.982 173.443 293.855 173.528 293.715 173.583C293.574 173.638 293.424 173.661 293.273 173.653H290.004L291.453 175.914C291.617 176.188 291.708 176.498 291.718 176.816C291.723 176.959 291.699 177.102 291.648 177.235C291.596 177.369 291.518 177.491 291.418 177.593C291.325 177.692 291.213 177.772 291.088 177.826C290.964 177.881 290.829 177.91 290.693 177.911C290.474 177.908 290.261 177.841 290.079 177.719C289.897 177.597 289.754 177.424 289.669 177.222L288.202 174.625L286.735 177.222C286.648 177.429 286.504 177.608 286.319 177.736C286.135 177.864 285.917 177.937 285.693 177.947Z" fill="black"/>
<path d="M301.914 177.947C301.775 177.947 301.638 177.918 301.511 177.864C301.383 177.809 301.268 177.729 301.172 177.629C301.068 177.525 300.985 177.401 300.931 177.264C300.876 177.127 300.85 176.981 300.854 176.833C300.854 176.585 300.921 176.34 301.048 176.127L302.639 173.653H299.387C299.237 173.66 299.087 173.636 298.947 173.581C298.806 173.526 298.68 173.442 298.574 173.335C298.393 173.123 298.293 172.853 298.293 172.575C298.293 172.296 298.393 172.026 298.574 171.815C298.68 171.707 298.806 171.623 298.947 171.568C299.087 171.513 299.237 171.489 299.387 171.497L302.586 171.585L301.084 169.2C300.942 168.964 300.863 168.697 300.854 168.422C300.85 168.275 300.876 168.128 300.931 167.991C300.985 167.855 301.068 167.731 301.172 167.627C301.271 167.526 301.389 167.446 301.52 167.391C301.65 167.336 301.79 167.308 301.932 167.309C302.13 167.306 302.324 167.361 302.491 167.468C302.657 167.575 302.789 167.728 302.869 167.91L304.424 170.684L305.908 168.033C306.001 167.827 306.15 167.65 306.337 167.523C306.524 167.395 306.742 167.321 306.968 167.309C307.107 167.309 307.244 167.337 307.372 167.392C307.5 167.446 307.615 167.526 307.71 167.627C307.814 167.724 307.896 167.842 307.951 167.973C308.005 168.104 308.032 168.245 308.028 168.387C308.026 168.638 307.953 168.883 307.816 169.093L306.261 171.585L309.495 171.497C309.646 171.488 309.796 171.512 309.936 171.567C310.077 171.622 310.204 171.706 310.308 171.815C310.49 172.026 310.59 172.296 310.59 172.575C310.59 172.853 310.49 173.123 310.308 173.335C310.204 173.443 310.077 173.528 309.936 173.583C309.796 173.638 309.646 173.661 309.495 173.653H306.226L307.675 175.914C307.838 176.188 307.93 176.498 307.94 176.816C307.945 176.959 307.921 177.102 307.87 177.235C307.818 177.369 307.74 177.491 307.64 177.593C307.547 177.692 307.435 177.772 307.31 177.826C307.185 177.881 307.051 177.91 306.915 177.911C306.696 177.908 306.482 177.841 306.3 177.719C306.118 177.597 305.976 177.424 305.89 177.222L304.424 174.625L302.957 177.222C302.87 177.429 302.726 177.608 302.541 177.736C302.356 177.864 302.139 177.937 301.914 177.947Z" fill="black"/>
<path d="M318.207 177.947C318.068 177.947 317.931 177.918 317.804 177.864C317.676 177.809 317.561 177.729 317.465 177.629C317.361 177.525 317.278 177.401 317.224 177.264C317.169 177.127 317.143 176.981 317.147 176.833C317.147 176.585 317.214 176.34 317.341 176.127L318.932 173.653H315.68C315.53 173.66 315.38 173.636 315.24 173.581C315.099 173.526 314.973 173.442 314.867 173.335C314.686 173.123 314.586 172.853 314.586 172.575C314.586 172.296 314.686 172.026 314.867 171.815C314.973 171.707 315.099 171.623 315.24 171.568C315.38 171.513 315.53 171.489 315.68 171.497L318.879 171.585L317.377 169.2C317.235 168.964 317.156 168.697 317.147 168.422C317.143 168.275 317.169 168.128 317.224 167.991C317.278 167.855 317.361 167.731 317.465 167.627C317.564 167.526 317.682 167.446 317.813 167.391C317.943 167.336 318.083 167.308 318.225 167.309C318.423 167.306 318.617 167.361 318.784 167.468C318.95 167.575 319.082 167.728 319.161 167.91L320.717 170.684L322.201 168.033C322.294 167.827 322.443 167.65 322.63 167.523C322.817 167.395 323.035 167.321 323.261 167.309C323.4 167.309 323.537 167.337 323.665 167.392C323.792 167.446 323.908 167.526 324.003 167.627C324.107 167.724 324.189 167.842 324.244 167.973C324.298 168.104 324.325 168.245 324.321 168.387C324.319 168.638 324.246 168.883 324.109 169.093L322.554 171.585L325.788 171.497C325.939 171.488 326.089 171.512 326.229 171.567C326.37 171.622 326.497 171.706 326.601 171.815C326.783 172.026 326.882 172.296 326.882 172.575C326.882 172.853 326.783 173.123 326.601 173.335C326.497 173.443 326.37 173.528 326.229 173.583C326.089 173.638 325.939 173.661 325.788 173.653H322.519L323.968 175.914C324.131 176.188 324.223 176.498 324.233 176.816C324.238 176.959 324.214 177.102 324.162 177.235C324.111 177.369 324.033 177.491 323.933 177.593C323.84 177.692 323.727 177.772 323.603 177.826C323.478 177.881 323.344 177.91 323.208 177.911C322.989 177.906 322.777 177.838 322.595 177.716C322.414 177.594 322.271 177.423 322.183 177.222L320.717 174.625L319.25 177.222C319.163 177.429 319.019 177.608 318.834 177.736C318.649 177.864 318.432 177.937 318.207 177.947Z" fill="black"/>
<path d="M334.358 177.947C334.219 177.947 334.081 177.918 333.954 177.864C333.826 177.809 333.711 177.729 333.615 177.629C333.511 177.525 333.429 177.401 333.374 177.264C333.319 177.127 333.293 176.981 333.297 176.833C333.306 176.586 333.372 176.344 333.492 176.127L335.082 173.653H331.831C331.68 173.66 331.53 173.636 331.39 173.581C331.25 173.526 331.123 173.442 331.018 173.335C330.836 173.123 330.736 172.853 330.736 172.575C330.736 172.296 330.836 172.026 331.018 171.815C331.123 171.707 331.25 171.623 331.39 171.568C331.53 171.513 331.68 171.489 331.831 171.497L335.029 171.585L333.527 169.2C333.385 168.964 333.306 168.697 333.297 168.422C333.293 168.275 333.319 168.128 333.374 167.991C333.429 167.855 333.511 167.731 333.615 167.627C333.714 167.526 333.833 167.446 333.963 167.391C334.094 167.336 334.234 167.308 334.375 167.309C334.573 167.306 334.768 167.361 334.934 167.468C335.101 167.575 335.232 167.728 335.312 167.91L336.867 170.684L338.351 168.033C338.445 167.827 338.593 167.65 338.78 167.523C338.967 167.395 339.185 167.321 339.412 167.309C339.551 167.307 339.689 167.334 339.817 167.389C339.944 167.443 340.059 167.525 340.154 167.627C340.257 167.724 340.339 167.842 340.394 167.973C340.449 168.104 340.475 168.245 340.472 168.387C340.469 168.638 340.396 168.883 340.26 169.093L338.705 171.585L341.938 171.497C342.089 171.488 342.24 171.512 342.38 171.567C342.52 171.622 342.647 171.706 342.751 171.815C342.933 172.026 343.033 172.296 343.033 172.575C343.033 172.853 342.933 173.123 342.751 173.335C342.647 173.443 342.52 173.528 342.38 173.583C342.24 173.638 342.089 173.661 341.938 173.653H338.669L340.118 175.915C340.282 176.188 340.373 176.498 340.383 176.816C340.389 176.959 340.365 177.102 340.313 177.235C340.261 177.369 340.183 177.491 340.083 177.593C339.99 177.692 339.878 177.772 339.753 177.826C339.629 177.881 339.495 177.91 339.359 177.911C339.14 177.906 338.927 177.838 338.746 177.716C338.564 177.594 338.421 177.423 338.334 177.222L336.867 174.625L335.4 177.222C335.313 177.429 335.169 177.608 334.984 177.736C334.8 177.864 334.582 177.937 334.358 177.947Z" fill="black"/>
<path d="M350.58 177.947C350.442 177.947 350.304 177.918 350.177 177.864C350.049 177.809 349.934 177.729 349.838 177.629C349.734 177.525 349.651 177.401 349.597 177.264C349.542 177.127 349.516 176.981 349.52 176.833C349.528 176.586 349.595 176.344 349.714 176.127L351.305 173.653H348.071C347.918 173.662 347.765 173.638 347.621 173.583C347.478 173.528 347.348 173.444 347.24 173.335C347.059 173.123 346.959 172.853 346.959 172.575C346.959 172.296 347.059 172.026 347.24 171.815C347.348 171.706 347.478 171.621 347.621 171.566C347.765 171.511 347.918 171.488 348.071 171.497L351.252 171.585L349.75 169.2C349.608 168.964 349.529 168.697 349.52 168.422C349.516 168.275 349.542 168.128 349.597 167.991C349.651 167.855 349.734 167.731 349.838 167.627C349.937 167.526 350.055 167.446 350.186 167.391C350.316 167.336 350.456 167.308 350.598 167.309C350.796 167.306 350.99 167.361 351.157 167.468C351.323 167.575 351.455 167.728 351.535 167.91L353.09 170.684L354.574 168.033C354.667 167.827 354.816 167.65 355.003 167.523C355.19 167.395 355.408 167.321 355.634 167.309C355.773 167.307 355.911 167.334 356.039 167.389C356.167 167.443 356.282 167.525 356.376 167.627C356.48 167.724 356.562 167.842 356.617 167.973C356.671 168.104 356.698 168.245 356.694 168.387C356.692 168.638 356.619 168.883 356.482 169.093L354.927 171.585L358.161 171.497C358.312 171.488 358.462 171.512 358.602 171.567C358.743 171.622 358.87 171.706 358.974 171.815C359.156 172.026 359.256 172.296 359.256 172.575C359.256 172.853 359.156 173.123 358.974 173.335C358.87 173.443 358.743 173.528 358.602 173.583C358.462 173.638 358.312 173.661 358.161 173.653H354.892L356.341 175.915C356.504 176.188 356.596 176.498 356.606 176.816C356.611 176.959 356.587 177.102 356.536 177.235C356.484 177.369 356.406 177.491 356.306 177.593C356.213 177.692 356.1 177.772 355.976 177.826C355.851 177.881 355.717 177.91 355.581 177.911C355.362 177.906 355.15 177.838 354.968 177.716C354.787 177.594 354.644 177.423 354.556 177.222L353.09 174.625L351.623 177.222C351.536 177.429 351.392 177.608 351.207 177.736C351.022 177.864 350.805 177.937 350.58 177.947Z" fill="black"/>
<path d="M366.803 177.947C366.664 177.947 366.527 177.919 366.399 177.864C366.272 177.81 366.156 177.73 366.061 177.629C365.956 177.525 365.874 177.401 365.819 177.264C365.765 177.128 365.739 176.981 365.743 176.834C365.742 176.585 365.81 176.341 365.937 176.127L367.527 173.653H364.276C364.126 173.661 363.975 173.636 363.835 173.582C363.695 173.527 363.568 173.443 363.463 173.335C363.281 173.124 363.182 172.854 363.182 172.575C363.182 172.296 363.281 172.027 363.463 171.815C363.568 171.708 363.695 171.624 363.835 171.569C363.975 171.514 364.126 171.49 364.276 171.497L367.474 171.586L365.919 169.288C365.778 169.053 365.699 168.785 365.69 168.511C365.686 168.364 365.712 168.217 365.766 168.08C365.821 167.944 365.903 167.819 366.008 167.716C366.107 167.615 366.225 167.534 366.355 167.48C366.486 167.425 366.626 167.397 366.768 167.398C366.965 167.395 367.16 167.45 367.326 167.557C367.493 167.664 367.624 167.817 367.704 167.998L369.259 170.773L370.744 168.122C370.837 167.916 370.985 167.739 371.172 167.611C371.359 167.484 371.578 167.41 371.804 167.398C371.943 167.395 372.081 167.423 372.209 167.477C372.337 167.532 372.452 167.613 372.546 167.716C372.65 167.813 372.731 167.931 372.786 168.062C372.841 168.193 372.868 168.334 372.864 168.476C372.862 168.726 372.788 168.972 372.652 169.182L371.097 171.674L374.331 171.586C374.481 171.577 374.632 171.601 374.772 171.655C374.912 171.71 375.039 171.795 375.144 171.904C375.325 172.115 375.425 172.385 375.425 172.664C375.425 172.942 375.325 173.212 375.144 173.423C375.039 173.532 374.912 173.617 374.772 173.672C374.632 173.727 374.481 173.75 374.331 173.741H371.062L372.511 176.003C372.674 176.276 372.765 176.587 372.776 176.905C372.781 177.048 372.757 177.19 372.705 177.324C372.654 177.458 372.575 177.58 372.475 177.682C372.382 177.781 372.27 177.861 372.146 177.915C372.021 177.97 371.887 177.999 371.751 178C371.532 177.995 371.319 177.927 371.138 177.805C370.956 177.683 370.813 177.512 370.726 177.311L369.259 174.713L367.793 177.311C367.697 177.494 367.556 177.649 367.382 177.761C367.209 177.872 367.009 177.937 366.803 177.947Z" fill="black"/>
<path d="M383.024 177.947C382.885 177.947 382.748 177.919 382.62 177.864C382.493 177.809 382.378 177.729 382.282 177.629C382.177 177.525 382.095 177.401 382.041 177.264C381.986 177.128 381.96 176.981 381.964 176.834C381.972 176.586 382.039 176.344 382.158 176.127L383.749 173.653H380.515C380.364 173.664 380.213 173.642 380.072 173.587C379.931 173.532 379.805 173.445 379.702 173.335C379.509 173.129 379.402 172.857 379.402 172.575C379.402 172.293 379.509 172.021 379.702 171.815C379.805 171.705 379.931 171.619 380.072 171.564C380.213 171.508 380.364 171.486 380.515 171.497L383.696 171.585L382.194 169.2C382.052 168.965 381.973 168.697 381.964 168.422C381.959 168.278 381.984 168.134 382.036 167.999C382.088 167.864 382.166 167.741 382.267 167.637C382.367 167.533 382.488 167.451 382.621 167.394C382.754 167.338 382.897 167.309 383.042 167.309C383.24 167.306 383.434 167.362 383.601 167.468C383.767 167.575 383.899 167.729 383.978 167.91L385.533 170.684L387.018 168.034C387.111 167.827 387.26 167.651 387.447 167.523C387.633 167.395 387.852 167.321 388.078 167.309C388.217 167.305 388.356 167.331 388.484 167.386C388.613 167.441 388.727 167.523 388.82 167.627C388.924 167.724 389.006 167.842 389.061 167.973C389.115 168.104 389.142 168.245 389.138 168.387C389.136 168.638 389.062 168.883 388.926 169.094L387.371 171.585L390.605 171.497C390.755 171.488 390.906 171.512 391.046 171.567C391.187 171.622 391.313 171.707 391.418 171.815C391.599 172.027 391.699 172.296 391.699 172.575C391.699 172.854 391.599 173.123 391.418 173.335C391.313 173.444 391.187 173.528 391.046 173.583C390.906 173.638 390.755 173.662 390.605 173.653H387.336L388.785 175.915C388.948 176.188 389.04 176.498 389.05 176.816C389.055 176.955 389.032 177.094 388.983 177.225C388.934 177.355 388.86 177.475 388.765 177.576C388.669 177.678 388.555 177.76 388.428 177.818C388.301 177.875 388.164 177.907 388.025 177.912C387.806 177.906 387.594 177.839 387.412 177.717C387.23 177.595 387.088 177.423 387 177.223L385.533 174.625L384.067 177.223C383.98 177.43 383.835 177.608 383.651 177.736C383.466 177.865 383.249 177.938 383.024 177.947Z" fill="black"/>
<path d="M399.247 177.947C399.108 177.947 398.971 177.919 398.843 177.864C398.715 177.809 398.6 177.729 398.505 177.629C398.4 177.525 398.318 177.401 398.263 177.264C398.208 177.128 398.182 176.981 398.187 176.834C398.195 176.586 398.261 176.344 398.381 176.127L399.971 173.653H396.72C396.572 173.662 396.424 173.638 396.287 173.583C396.149 173.528 396.026 173.443 395.925 173.335C395.732 173.129 395.625 172.857 395.625 172.575C395.625 172.293 395.732 172.021 395.925 171.815C396.026 171.707 396.149 171.622 396.287 171.567C396.424 171.512 396.572 171.488 396.72 171.497L399.918 171.585L398.416 169.2C398.275 168.965 398.195 168.697 398.187 168.422C398.182 168.278 398.206 168.134 398.258 167.999C398.31 167.864 398.389 167.741 398.489 167.637C398.59 167.533 398.71 167.451 398.844 167.394C398.977 167.338 399.12 167.309 399.264 167.309C399.462 167.306 399.657 167.362 399.823 167.468C399.99 167.575 400.121 167.729 400.201 167.91L401.756 170.684L403.24 168.034C403.334 167.827 403.482 167.651 403.669 167.523C403.856 167.395 404.075 167.321 404.301 167.309C404.44 167.305 404.579 167.331 404.707 167.386C404.835 167.441 404.95 167.523 405.043 167.627C405.146 167.724 405.228 167.842 405.283 167.973C405.338 168.104 405.365 168.245 405.361 168.387C405.359 168.638 405.285 168.883 405.149 169.094L403.594 171.585L406.828 171.497C406.978 171.488 407.129 171.512 407.269 171.567C407.409 171.622 407.536 171.707 407.641 171.815C407.822 172.027 407.922 172.296 407.922 172.575C407.922 172.854 407.822 173.123 407.641 173.335C407.536 173.444 407.409 173.528 407.269 173.583C407.129 173.638 406.978 173.662 406.828 173.653H403.559L405.008 175.915C405.171 176.188 405.262 176.498 405.273 176.816C405.277 176.955 405.255 177.094 405.206 177.225C405.157 177.355 405.082 177.475 404.987 177.576C404.892 177.678 404.778 177.76 404.651 177.818C404.524 177.875 404.387 177.907 404.248 177.912C404.029 177.906 403.816 177.839 403.635 177.717C403.453 177.595 403.31 177.423 403.223 177.223L401.756 174.625L400.289 177.223C400.202 177.43 400.058 177.608 399.873 177.736C399.689 177.865 399.471 177.938 399.247 177.947Z" fill="black"/>
<path d="M415.398 177.947C415.259 177.947 415.122 177.919 414.994 177.864C414.867 177.809 414.752 177.729 414.656 177.629C414.551 177.525 414.469 177.401 414.415 177.264C414.36 177.128 414.334 176.981 414.338 176.834C414.346 176.586 414.413 176.344 414.532 176.127L416.123 173.653H412.871C412.723 173.662 412.576 173.638 412.438 173.583C412.301 173.528 412.177 173.443 412.076 173.335C411.883 173.129 411.776 172.857 411.776 172.575C411.776 172.293 411.883 172.021 412.076 171.815C412.177 171.707 412.301 171.622 412.438 171.567C412.576 171.512 412.723 171.488 412.871 171.497L416.07 171.585L414.568 169.2C414.426 168.965 414.347 168.697 414.338 168.422C414.334 168.275 414.36 168.129 414.415 167.992C414.469 167.855 414.551 167.731 414.656 167.627C414.755 167.526 414.873 167.446 415.004 167.391C415.134 167.337 415.274 167.309 415.416 167.309C415.614 167.306 415.808 167.362 415.975 167.468C416.141 167.575 416.273 167.729 416.352 167.91L417.907 170.684L419.392 168.034C419.485 167.827 419.634 167.651 419.821 167.523C420.007 167.395 420.226 167.321 420.452 167.309C420.591 167.305 420.73 167.331 420.858 167.386C420.987 167.441 421.101 167.523 421.194 167.627C421.298 167.724 421.38 167.842 421.434 167.973C421.489 168.104 421.516 168.245 421.512 168.387C421.51 168.638 421.436 168.883 421.3 169.094L419.745 171.585L422.979 171.497C423.129 171.488 423.28 171.512 423.42 171.567C423.561 171.622 423.687 171.707 423.792 171.815C423.974 172.027 424.073 172.296 424.073 172.575C424.073 172.854 423.974 173.123 423.792 173.335C423.687 173.444 423.561 173.528 423.42 173.583C423.28 173.638 423.129 173.662 422.979 173.653H419.71L421.159 175.915C421.322 176.188 421.414 176.498 421.424 176.816C421.429 176.959 421.405 177.102 421.353 177.236C421.302 177.369 421.224 177.491 421.124 177.594C421.03 177.693 420.918 177.772 420.794 177.827C420.669 177.881 420.535 177.91 420.399 177.912C420.18 177.906 419.968 177.839 419.786 177.717C419.605 177.595 419.462 177.423 419.374 177.223L417.907 174.625L416.441 177.223C416.354 177.43 416.209 177.608 416.025 177.736C415.84 177.865 415.623 177.938 415.398 177.947Z" fill="black"/>
<path d="M470.991 217.035H492.603" stroke="white" stroke-width="3" stroke-linecap="round" stroke-linejoin="round"/>
<path d="M171.237 57.9072V201.449C171.237 205.606 172.889 209.593 175.828 212.532C178.768 215.472 182.754 217.123 186.911 217.123H450.474" stroke="white" stroke-width="3" stroke-linecap="round" stroke-linejoin="round"/>
<path d="M171.237 19.8447V41.368" stroke="white" stroke-width="3" stroke-linecap="round" stroke-linejoin="round"/>
</svg>
